<svg width="200" height="200" viewBox="0 0 200 200" fill="none" xmlns="http://www.w3.org/2000/svg">
<g clip-path="url(#clip0_1714_1387)">
<path d="M170.055 136.222C161.128 126.55 150.295 118.831 138.238 113.552C126.181 108.272 113.162 105.547 99.9996 105.547C86.8374 105.547 73.8179 108.272 61.761 113.552C49.7041 118.831 38.871 126.55 29.944 136.222C28.5658 137.746 27.7948 139.723 27.7773 141.778V175.111C27.8066 177.302 28.6974 179.393 30.2571 180.932C31.8167 182.471 33.9197 183.333 36.1107 183.333H163.888C166.099 183.333 168.218 182.455 169.781 180.892C171.344 179.33 172.222 177.21 172.222 175V141.667C172.177 139.65 171.408 137.718 170.055 136.222Z" fill="#FF69B4"/>
<path d="M100 94.4443C121.478 94.4443 138.889 77.0331 138.889 55.5554C138.889 34.0777 121.478 16.6665 100 16.6665C78.5225 16.6665 61.1113 34.0777 61.1113 55.5554C61.1113 77.0331 78.5225 94.4443 100 94.4443Z" fill="#FF69B4"/>
</g>
<defs>
<clipPath id="clip0_1714_1387">
<rect width="200" height="200" fill="white"/>
</clipPath>
</defs>
</svg>
