<svg width="200" height="200" viewBox="0 0 200 200" fill="none" xmlns="http://www.w3.org/2000/svg">
<g clip-path="url(#clip0_1714_1391)">
<path d="M170.056 136.222C161.129 126.55 150.296 118.831 138.239 113.552C126.182 108.272 113.162 105.547 100 105.547C86.8379 105.547 73.8184 108.272 61.7615 113.552C49.7046 118.831 38.8715 126.55 29.9445 136.222C28.5663 137.746 27.7953 139.723 27.7778 141.778V175.111C27.807 177.302 28.6979 179.393 30.2575 180.932C31.8172 182.471 33.9201 183.333 36.1112 183.333H163.889C166.099 183.333 168.219 182.455 169.781 180.892C171.344 179.33 172.222 177.21 172.222 175V141.667C172.178 139.65 171.409 137.718 170.056 136.222Z" fill="#658955"/>
<path d="M100 94.4443C121.478 94.4443 138.889 77.0331 138.889 55.5554C138.889 34.0777 121.478 16.6665 100 16.6665C78.5225 16.6665 61.1113 34.0777 61.1113 55.5554C61.1113 77.0331 78.5225 94.4443 100 94.4443Z" fill="#658955"/>
</g>
<defs>
<clipPath id="clip0_1714_1391">
<rect width="200" height="200" fill="white"/>
</clipPath>
</defs>
</svg>
