<svg width="357" height="521" viewBox="0 0 357 521" fill="none" xmlns="http://www.w3.org/2000/svg">
<g filter="url(#filter0_d_1794_1348)">
<rect x="19" y="13" width="311" height="475" rx="31" fill="#808080"/>
<path d="M96.688 414.832L95.356 421.06H100.108V424.66H94.6L93.16 431.32H89.236L90.676 424.66H83.62L82.18 431.32H78.256L79.696 424.66H74.116V421.06H80.452L81.784 414.832H76.24V411.232H82.54L83.944 404.68H87.868L86.464 411.232H93.52L94.924 404.68H98.848L97.444 411.232H102.232V414.832H96.688ZM92.764 414.832H85.708L84.376 421.06H91.432L92.764 414.832ZM120.667 411.16C120.403 410.056 119.923 409.228 119.227 408.676C118.531 408.124 117.559 407.848 116.311 407.848C114.415 407.848 112.999 408.58 112.063 410.044C111.127 411.484 110.635 413.884 110.587 417.244C111.211 416.188 112.123 415.372 113.323 414.796C114.523 414.22 115.819 413.932 117.211 413.932C118.795 413.932 120.187 414.28 121.387 414.976C122.611 415.648 123.559 416.632 124.231 417.928C124.927 419.224 125.275 420.772 125.275 422.572C125.275 424.252 124.939 425.752 124.267 427.072C123.619 428.392 122.647 429.436 121.351 430.204C120.055 430.948 118.495 431.32 116.671 431.32C114.199 431.32 112.255 430.78 110.839 429.7C109.447 428.596 108.463 427.048 107.887 425.056C107.335 423.064 107.059 420.58 107.059 417.604C107.059 408.82 110.155 404.428 116.347 404.428C118.747 404.428 120.631 405.076 121.999 406.372C123.391 407.668 124.207 409.264 124.447 411.16H120.667ZM116.311 417.388C114.847 417.388 113.599 417.832 112.567 418.72C111.559 419.584 111.055 420.844 111.055 422.5C111.055 424.156 111.523 425.476 112.459 426.46C113.419 427.42 114.751 427.9 116.455 427.9C117.967 427.9 119.155 427.432 120.019 426.496C120.907 425.56 121.351 424.312 121.351 422.752C121.351 421.12 120.919 419.824 120.055 418.864C119.215 417.88 117.967 417.388 116.311 417.388ZM146.572 408.604H134.512V415.768C135.016 415.096 135.76 414.532 136.744 414.076C137.752 413.62 138.82 413.392 139.948 413.392C141.964 413.392 143.596 413.824 144.844 414.688C146.116 415.552 147.016 416.644 147.544 417.964C148.096 419.284 148.372 420.676 148.372 422.14C148.372 423.916 148.024 425.5 147.328 426.892C146.656 428.26 145.636 429.34 144.268 430.132C142.924 430.924 141.268 431.32 139.3 431.32C136.684 431.32 134.584 430.672 133 429.376C131.416 428.08 130.468 426.364 130.156 424.228H134.152C134.416 425.356 135.004 426.256 135.916 426.928C136.828 427.576 137.968 427.9 139.336 427.9C141.04 427.9 142.312 427.384 143.152 426.352C144.016 425.32 144.448 423.952 144.448 422.248C144.448 420.52 144.016 419.2 143.152 418.288C142.288 417.352 141.016 416.884 139.336 416.884C138.16 416.884 137.164 417.184 136.348 417.784C135.556 418.36 134.98 419.152 134.62 420.16H130.732V405.004H146.572V408.604ZM157.072 417.604C154.576 416.356 153.328 414.388 153.328 411.7C153.328 410.404 153.652 409.216 154.3 408.136C154.948 407.056 155.92 406.204 157.216 405.58C158.512 404.932 160.096 404.608 161.968 404.608C163.816 404.608 165.388 404.932 166.684 405.58C168.004 406.204 168.988 407.056 169.636 408.136C170.284 409.216 170.608 410.404 170.608 411.7C170.608 413.044 170.26 414.232 169.564 415.264C168.892 416.272 167.992 417.052 166.864 417.604C168.232 418.108 169.312 418.936 170.104 420.088C170.896 421.216 171.292 422.548 171.292 424.084C171.292 425.644 170.896 427.024 170.104 428.224C169.312 429.424 168.208 430.348 166.792 430.996C165.376 431.644 163.768 431.968 161.968 431.968C160.168 431.968 158.56 431.644 157.144 430.996C155.752 430.348 154.66 429.424 153.868 428.224C153.076 427.024 152.68 425.644 152.68 424.084C152.68 422.524 153.076 421.18 153.868 420.052C154.66 418.924 155.728 418.108 157.072 417.604ZM166.684 412.204C166.684 410.86 166.264 409.828 165.424 409.108C164.584 408.388 163.432 408.028 161.968 408.028C160.528 408.028 159.388 408.388 158.548 409.108C157.708 409.828 157.288 410.872 157.288 412.24C157.288 413.44 157.72 414.424 158.584 415.192C159.472 415.936 160.6 416.308 161.968 416.308C163.336 416.308 164.464 415.924 165.352 415.156C166.24 414.388 166.684 413.404 166.684 412.204ZM161.968 419.404C160.384 419.404 159.088 419.8 158.08 420.592C157.096 421.36 156.604 422.476 156.604 423.94C156.604 425.308 157.084 426.424 158.044 427.288C159.004 428.128 160.312 428.548 161.968 428.548C163.6 428.548 164.884 428.116 165.82 427.252C166.78 426.388 167.26 425.284 167.26 423.94C167.26 422.5 166.768 421.384 165.784 420.592C164.824 419.8 163.552 419.404 161.968 419.404ZM180.713 424.192C180.953 425.392 181.469 426.304 182.261 426.928C183.053 427.552 184.121 427.864 185.465 427.864C187.169 427.864 188.417 427.192 189.209 425.848C190.001 424.504 190.397 422.212 190.397 418.972C189.821 419.788 189.005 420.424 187.949 420.88C186.917 421.312 185.789 421.528 184.565 421.528C183.005 421.528 181.589 421.216 180.317 420.592C179.045 419.944 178.037 418.996 177.293 417.748C176.573 416.476 176.213 414.94 176.213 413.14C176.213 410.5 176.981 408.4 178.517 406.84C180.077 405.256 182.213 404.464 184.925 404.464C188.189 404.464 190.505 405.556 191.873 407.74C193.265 409.9 193.961 413.224 193.961 417.712C193.961 420.808 193.697 423.34 193.169 425.308C192.665 427.276 191.777 428.764 190.505 429.772C189.233 430.78 187.469 431.284 185.213 431.284C182.645 431.284 180.665 430.612 179.273 429.268C177.881 427.924 177.101 426.232 176.933 424.192H180.713ZM185.285 418.072C186.725 418.072 187.853 417.628 188.669 416.74C189.509 415.828 189.929 414.628 189.929 413.14C189.929 411.484 189.485 410.2 188.597 409.288C187.733 408.352 186.545 407.884 185.033 407.884C183.521 407.884 182.321 408.364 181.433 409.324C180.569 410.26 180.137 411.496 180.137 413.032C180.137 414.496 180.557 415.708 181.397 416.668C182.261 417.604 183.557 418.072 185.285 418.072ZM215.373 408.604H203.313V415.768C203.817 415.096 204.561 414.532 205.545 414.076C206.553 413.62 207.621 413.392 208.749 413.392C210.765 413.392 212.397 413.824 213.645 414.688C214.917 415.552 215.817 416.644 216.345 417.964C216.897 419.284 217.173 420.676 217.173 422.14C217.173 423.916 216.825 425.5 216.129 426.892C215.457 428.26 214.437 429.34 213.069 430.132C211.725 430.924 210.069 431.32 208.101 431.32C205.485 431.32 203.385 430.672 201.801 429.376C200.217 428.08 199.269 426.364 198.957 424.228H202.953C203.217 425.356 203.805 426.256 204.717 426.928C205.629 427.576 206.769 427.9 208.137 427.9C209.841 427.9 211.113 427.384 211.953 426.352C212.817 425.32 213.249 423.952 213.249 422.248C213.249 420.52 212.817 419.2 211.953 418.288C211.089 417.352 209.817 416.884 208.137 416.884C206.961 416.884 205.965 417.184 205.149 417.784C204.357 418.36 203.781 419.152 203.421 420.16H199.533V405.004H215.373V408.604ZM238.365 408.604H226.305V415.768C226.809 415.096 227.553 414.532 228.537 414.076C229.545 413.62 230.613 413.392 231.741 413.392C233.757 413.392 235.389 413.824 236.637 414.688C237.909 415.552 238.809 416.644 239.337 417.964C239.889 419.284 240.165 420.676 240.165 422.14C240.165 423.916 239.817 425.5 239.121 426.892C238.449 428.26 237.429 429.34 236.061 430.132C234.717 430.924 233.061 431.32 231.093 431.32C228.477 431.32 226.377 430.672 224.793 429.376C223.209 428.08 222.261 426.364 221.949 424.228H225.945C226.209 425.356 226.797 426.256 227.709 426.928C228.621 427.576 229.761 427.9 231.129 427.9C232.833 427.9 234.105 427.384 234.945 426.352C235.809 425.32 236.241 423.952 236.241 422.248C236.241 420.52 235.809 419.2 234.945 418.288C234.081 417.352 232.809 416.884 231.129 416.884C229.953 416.884 228.957 417.184 228.141 417.784C227.349 418.36 226.773 419.152 226.413 420.16H222.525V405.004H238.365V408.604Z" fill="white"/>
</g>
<defs>
<filter id="filter0_d_1794_1348" x="0" y="0" width="357" height="521" filterUnits="userSpaceOnUse" color-interpolation-filters="sRGB">
<feFlood flood-opacity="0" result="BackgroundImageFix"/>
<feColorMatrix in="SourceAlpha" type="matrix" values="0 0 0 0 0 0 0 0 0 0 0 0 0 0 0 0 0 0 127 0" result="hardAlpha"/>
<feOffset dx="4" dy="10"/>
<feGaussianBlur stdDeviation="11.5"/>
<feComposite in2="hardAlpha" operator="out"/>
<feColorMatrix type="matrix" values="0 0 0 0 0 0 0 0 0 0 0 0 0 0 0 0 0 0 0.25 0"/>
<feBlend mode="normal" in2="BackgroundImageFix" result="effect1_dropShadow_1794_1348"/>
<feBlend mode="normal" in="SourceGraphic" in2="effect1_dropShadow_1794_1348" result="shape"/>
</filter>
</defs>
</svg>
