<svg width="357" height="521" viewBox="0 0 357 521" fill="none" xmlns="http://www.w3.org/2000/svg">
<g filter="url(#filter0_d_1794_1316)">
<rect x="19" y="13" width="311" height="475" rx="31" fill="#00BFFF"/>
<path d="M96.688 414.832L95.356 421.06H100.108V424.66H94.6L93.16 431.32H89.236L90.676 424.66H83.62L82.18 431.32H78.256L79.696 424.66H74.116V421.06H80.452L81.784 414.832H76.24V411.232H82.54L83.944 404.68H87.868L86.464 411.232H93.52L94.924 404.68H98.848L97.444 411.232H102.232V414.832H96.688ZM92.764 414.832H85.708L84.376 421.06H91.432L92.764 414.832ZM105.727 418.756C105.727 416.308 106.291 414.112 107.419 412.168C108.571 410.224 110.119 408.712 112.063 407.632C114.031 406.528 116.179 405.976 118.507 405.976C121.171 405.976 123.535 406.636 125.599 407.956C127.687 409.252 129.199 411.1 130.135 413.5H125.203C124.555 412.18 123.655 411.196 122.503 410.548C121.351 409.9 120.019 409.576 118.507 409.576C116.851 409.576 115.375 409.948 114.079 410.692C112.783 411.436 111.763 412.504 111.019 413.896C110.299 415.288 109.939 416.908 109.939 418.756C109.939 420.604 110.299 422.224 111.019 423.616C111.763 425.008 112.783 426.088 114.079 426.856C115.375 427.6 116.851 427.972 118.507 427.972C120.019 427.972 121.351 427.648 122.503 427C123.655 426.352 124.555 425.368 125.203 424.048H130.135C129.199 426.448 127.687 428.296 125.599 429.592C123.535 430.888 121.171 431.536 118.507 431.536C116.155 431.536 114.007 430.996 112.063 429.916C110.119 428.812 108.571 427.288 107.419 425.344C106.291 423.4 105.727 421.204 105.727 418.756ZM139.51 424.192C139.75 425.392 140.266 426.304 141.058 426.928C141.85 427.552 142.918 427.864 144.262 427.864C145.966 427.864 147.214 427.192 148.006 425.848C148.798 424.504 149.194 422.212 149.194 418.972C148.618 419.788 147.802 420.424 146.746 420.88C145.714 421.312 144.586 421.528 143.362 421.528C141.802 421.528 140.386 421.216 139.114 420.592C137.842 419.944 136.834 418.996 136.09 417.748C135.37 416.476 135.01 414.94 135.01 413.14C135.01 410.5 135.778 408.4 137.314 406.84C138.874 405.256 141.01 404.464 143.722 404.464C146.986 404.464 149.302 405.556 150.67 407.74C152.062 409.9 152.758 413.224 152.758 417.712C152.758 420.808 152.494 423.34 151.966 425.308C151.462 427.276 150.574 428.764 149.302 429.772C148.03 430.78 146.266 431.284 144.01 431.284C141.442 431.284 139.462 430.612 138.07 429.268C136.678 427.924 135.898 426.232 135.73 424.192H139.51ZM144.082 418.072C145.522 418.072 146.65 417.628 147.466 416.74C148.306 415.828 148.726 414.628 148.726 413.14C148.726 411.484 148.282 410.2 147.394 409.288C146.53 408.352 145.342 407.884 143.83 407.884C142.318 407.884 141.118 408.364 140.23 409.324C139.366 410.26 138.934 411.496 138.934 413.032C138.934 414.496 139.354 415.708 140.194 416.668C141.058 417.604 142.354 418.072 144.082 418.072ZM171.182 418.468C172.526 418.708 173.666 419.416 174.602 420.592C175.538 421.768 176.006 423.1 176.006 424.588C176.006 425.86 175.67 427.012 174.998 428.044C174.35 429.052 173.402 429.856 172.154 430.456C170.906 431.032 169.454 431.32 167.798 431.32H157.79V406.3H167.33C169.034 406.3 170.498 406.588 171.722 407.164C172.946 407.74 173.87 408.52 174.494 409.504C175.118 410.464 175.43 411.544 175.43 412.744C175.43 414.184 175.046 415.384 174.278 416.344C173.51 417.304 172.478 418.012 171.182 418.468ZM161.894 416.812H166.97C168.314 416.812 169.358 416.512 170.102 415.912C170.87 415.288 171.254 414.4 171.254 413.248C171.254 412.12 170.87 411.244 170.102 410.62C169.358 409.972 168.314 409.648 166.97 409.648H161.894V416.812ZM167.438 427.972C168.83 427.972 169.922 427.636 170.714 426.964C171.506 426.292 171.902 425.356 171.902 424.156C171.902 422.932 171.482 421.96 170.642 421.24C169.802 420.52 168.686 420.16 167.294 420.16H161.894V427.972H167.438ZM185.038 424.192C185.278 425.392 185.794 426.304 186.586 426.928C187.378 427.552 188.446 427.864 189.79 427.864C191.494 427.864 192.742 427.192 193.534 425.848C194.326 424.504 194.722 422.212 194.722 418.972C194.146 419.788 193.33 420.424 192.274 420.88C191.242 421.312 190.114 421.528 188.89 421.528C187.33 421.528 185.914 421.216 184.642 420.592C183.37 419.944 182.362 418.996 181.618 417.748C180.898 416.476 180.538 414.94 180.538 413.14C180.538 410.5 181.306 408.4 182.842 406.84C184.402 405.256 186.538 404.464 189.25 404.464C192.514 404.464 194.83 405.556 196.198 407.74C197.59 409.9 198.286 413.224 198.286 417.712C198.286 420.808 198.022 423.34 197.494 425.308C196.99 427.276 196.102 428.764 194.83 429.772C193.558 430.78 191.794 431.284 189.538 431.284C186.97 431.284 184.99 430.612 183.598 429.268C182.206 427.924 181.426 426.232 181.258 424.192H185.038ZM189.61 418.072C191.05 418.072 192.178 417.628 192.994 416.74C193.834 415.828 194.254 414.628 194.254 413.14C194.254 411.484 193.81 410.2 192.922 409.288C192.058 408.352 190.87 407.884 189.358 407.884C187.846 407.884 186.646 408.364 185.758 409.324C184.894 410.26 184.462 411.496 184.462 413.032C184.462 414.496 184.882 415.708 185.722 416.668C186.586 417.604 187.882 418.072 189.61 418.072ZM205.045 425.74C207.349 423.748 209.161 422.116 210.481 420.844C211.825 419.548 212.941 418.204 213.829 416.812C214.717 415.42 215.161 414.028 215.161 412.636C215.161 411.196 214.813 410.068 214.117 409.252C213.445 408.436 212.377 408.028 210.913 408.028C209.497 408.028 208.393 408.484 207.601 409.396C206.833 410.284 206.425 411.484 206.377 412.996H202.417C202.489 410.26 203.305 408.172 204.865 406.732C206.449 405.268 208.453 404.536 210.877 404.536C213.493 404.536 215.533 405.256 216.997 406.696C218.485 408.136 219.229 410.056 219.229 412.456C219.229 414.184 218.785 415.852 217.897 417.46C217.033 419.044 215.989 420.472 214.765 421.744C213.565 422.992 212.029 424.444 210.157 426.1L208.537 427.54H219.949V430.96H202.453V427.972L205.045 425.74ZM223.555 417.856C223.555 413.704 224.251 410.464 225.643 408.136C227.059 405.784 229.483 404.608 232.915 404.608C236.347 404.608 238.759 405.784 240.151 408.136C241.567 410.464 242.275 413.704 242.275 417.856C242.275 422.056 241.567 425.344 240.151 427.72C238.759 430.072 236.347 431.248 232.915 431.248C229.483 431.248 227.059 430.072 225.643 427.72C224.251 425.344 223.555 422.056 223.555 417.856ZM238.243 417.856C238.243 415.912 238.111 414.268 237.847 412.924C237.607 411.58 237.103 410.488 236.335 409.648C235.567 408.784 234.427 408.352 232.915 408.352C231.403 408.352 230.263 408.784 229.495 409.648C228.727 410.488 228.211 411.58 227.947 412.924C227.707 414.268 227.587 415.912 227.587 417.856C227.587 419.872 227.707 421.564 227.947 422.932C228.187 424.3 228.691 425.404 229.459 426.244C230.251 427.084 231.403 427.504 232.915 427.504C234.427 427.504 235.567 427.084 236.335 426.244C237.127 425.404 237.643 424.3 237.883 422.932C238.123 421.564 238.243 419.872 238.243 417.856Z" fill="white"/>
</g>
<defs>
<filter id="filter0_d_1794_1316" x="0" y="0" width="357" height="521" filterUnits="userSpaceOnUse" color-interpolation-filters="sRGB">
<feFlood flood-opacity="0" result="BackgroundImageFix"/>
<feColorMatrix in="SourceAlpha" type="matrix" values="0 0 0 0 0 0 0 0 0 0 0 0 0 0 0 0 0 0 127 0" result="hardAlpha"/>
<feOffset dx="4" dy="10"/>
<feGaussianBlur stdDeviation="11.5"/>
<feComposite in2="hardAlpha" operator="out"/>
<feColorMatrix type="matrix" values="0 0 0 0 0 0 0 0 0 0 0 0 0 0 0 0 0 0 0.25 0"/>
<feBlend mode="normal" in2="BackgroundImageFix" result="effect1_dropShadow_1794_1316"/>
<feBlend mode="normal" in="SourceGraphic" in2="effect1_dropShadow_1794_1316" result="shape"/>
</filter>
</defs>
</svg>
