<svg width="317" height="83" viewBox="0 0 317 83" fill="none" xmlns="http://www.w3.org/2000/svg">
<g filter="url(#filter0_d_1794_1339)">
<mask id="path-1-outside-1_1794_1339" maskUnits="userSpaceOnUse" x="-8.78629" y="-9.98468" width="330.504" height="91.2263" fill="black">
<rect fill="white" x="-8.78629" y="-9.98468" width="330.504" height="91.2263"/>
<path d="M47.0846 20.2281L45.227 32.319L54.467 32.3078L54.8904 39.295L44.1804 39.308L42.1637 52.2377L34.5337 52.2469L36.5504 39.3172L22.8305 39.3338L20.8137 52.2635L13.1837 52.2727L15.2005 39.343L4.35047 39.3561L3.92708 32.3689L16.2471 32.354L18.1046 20.2631L7.32461 20.2761L6.90121 13.2889L19.1512 13.2741L21.1106 0.554155L28.7406 0.544931L26.7812 13.2649L40.5012 13.2483L42.4606 0.528344L50.0906 0.519119L48.1312 13.2391L57.4412 13.2278L57.8646 20.215L47.0846 20.2281ZM39.4546 20.2373L25.7346 20.2539L23.8771 32.3448L37.5971 32.3282L39.4546 20.2373ZM76.8491 45.767L93.2991 45.7472L93.6886 52.1754L69.2586 52.2049L66.316 3.64396L74.296 3.63432L76.8491 45.767ZM96.5251 32.7461C96.2908 28.8799 96.8767 25.4552 98.2827 22.4721C99.7354 19.4889 101.789 17.1805 104.444 15.5468C107.142 13.8665 110.171 13.0243 113.531 13.0203C116.564 13.0166 119.238 13.619 121.551 14.8274C123.908 15.9891 125.817 17.4543 127.278 19.2227L126.939 13.633L134.989 13.6232L137.322 52.1226L129.272 52.1323L128.925 46.4029C127.682 48.2212 125.93 49.7373 123.67 50.9512C121.41 52.1651 118.787 52.7739 115.8 52.7775C112.487 52.7815 109.403 51.9467 106.548 50.2731C103.69 48.553 101.353 46.18 99.5359 43.1542C97.763 40.0817 96.7594 36.6124 96.5251 32.7461ZM128.104 32.8477C127.943 30.1926 127.243 27.8875 126.004 25.9324C124.812 23.9773 123.299 22.4884 121.463 21.4658C119.628 20.4432 117.684 19.9331 115.63 19.9356C113.577 19.938 111.695 20.4527 109.983 21.4797C108.269 22.46 106.912 23.9291 105.91 25.8868C104.953 27.798 104.554 30.0811 104.715 32.7362C104.876 35.3914 105.554 37.7198 106.748 39.7215C107.99 41.7231 109.53 43.2585 111.368 44.3278C113.25 45.3504 115.194 45.8604 117.201 45.858C119.254 45.8555 121.137 45.3408 122.848 44.3139C124.559 43.287 125.892 41.7946 126.847 39.8369C127.846 37.8326 128.264 35.5028 128.104 32.8477ZM163.675 46.0115C168.295 46.0059 171.229 43.9759 172.477 39.9215L181.087 39.9111C180.275 43.4525 178.608 46.3661 176.086 48.6518C173.608 50.8908 170.397 52.1991 166.453 52.5765L166.627 55.4413C169.333 55.438 171.565 56.0642 173.321 57.3199C175.08 58.6221 176.03 60.4378 176.171 62.7668C176.312 65.0959 175.584 66.9369 173.986 68.2897C172.39 69.6892 170.309 70.3905 167.743 70.3936L158.503 70.4048L158.198 65.374L165.828 65.3648C167.135 65.3632 168.103 65.1757 168.734 64.8022C169.365 64.4288 169.651 63.753 169.591 62.7748C169.532 61.7966 169.164 61.1215 168.488 60.7497C167.813 60.3778 166.821 60.1927 165.515 60.1943L161.665 60.1989L161.199 52.513C158.003 52.1442 155.139 51.0995 152.608 49.3789C150.074 47.6118 148.046 45.3316 146.523 42.5383C145.045 39.6985 144.195 36.4619 143.975 32.8285C143.735 28.8691 144.318 25.3979 145.724 22.4147C147.174 19.385 149.273 17.0532 152.021 15.4194C154.769 13.7857 157.986 12.9665 161.672 12.9621C166.339 12.9564 170.257 14.0697 173.426 16.302C176.638 18.4876 178.906 21.6293 180.227 25.7271L171.617 25.7375C170.802 23.8286 169.591 22.3393 167.986 21.2698C166.381 20.2003 164.412 19.6669 162.079 19.6698C158.812 19.6737 156.269 20.8414 154.451 23.1728C152.676 25.4576 151.914 28.6729 152.165 32.8186C152.416 36.9644 153.569 40.2006 155.623 42.5273C157.725 44.854 160.408 46.0154 163.675 46.0115ZM294.732 52.5612C291.699 52.5649 288.936 52.0325 286.445 50.964C283.997 49.849 282.017 48.3607 280.504 46.4991C278.988 44.591 278.113 42.4724 277.878 40.1435L286.138 40.1335C286.377 41.7637 287.231 43.1369 288.698 44.2531C290.21 45.3228 292.039 45.8563 294.186 45.8537C296.426 45.851 298.127 45.4296 299.289 44.5897C300.496 43.7032 301.058 42.5844 300.976 41.2336C300.889 39.7896 300.124 38.719 298.681 38.022C297.286 37.3249 295.069 36.559 292.032 35.7241C289.09 34.9357 286.687 34.17 284.822 33.4269C282.957 32.6838 281.301 31.5445 279.855 30.0089C278.455 28.4733 277.679 26.4478 277.526 23.9324C277.402 21.8829 277.896 20.0189 279.007 18.3405C280.116 16.6155 281.761 15.2626 283.942 14.2817C286.169 13.3007 288.753 12.8084 291.693 12.8049C296.08 12.7996 299.671 13.9133 302.466 16.146C305.306 18.332 306.934 21.3347 307.352 25.1542L299.372 25.1638C299.128 23.4405 298.345 22.0672 297.023 21.0439C295.7 20.0207 293.966 19.5103 291.819 19.5129C289.719 19.5155 288.133 19.9133 287.061 20.7066C285.989 21.4998 285.493 22.5486 285.572 23.8528C285.634 24.8776 286.06 25.7389 286.849 26.4367C287.638 27.1346 288.581 27.6924 289.68 28.1104C290.776 28.4817 292.392 28.9689 294.529 29.5719C297.374 30.3138 299.708 31.0797 301.529 31.8694C303.394 32.6125 305.025 33.7286 306.422 35.2176C307.819 36.7066 308.616 38.6855 308.812 41.1542C308.945 43.3436 308.457 45.3007 307.348 47.0257C306.239 48.7506 304.594 50.1036 302.413 51.0845C300.279 52.0654 297.719 52.5576 294.732 52.5612Z"/>
</mask>
<path d="M47.0846 20.2281L45.227 32.319L54.467 32.3078L54.8904 39.295L44.1804 39.308L42.1637 52.2377L34.5337 52.2469L36.5504 39.3172L22.8305 39.3338L20.8137 52.2635L13.1837 52.2727L15.2005 39.343L4.35047 39.3561L3.92708 32.3689L16.2471 32.354L18.1046 20.2631L7.32461 20.2761L6.90121 13.2889L19.1512 13.2741L21.1106 0.554155L28.7406 0.544931L26.7812 13.2649L40.5012 13.2483L42.4606 0.528344L50.0906 0.519119L48.1312 13.2391L57.4412 13.2278L57.8646 20.215L47.0846 20.2281ZM39.4546 20.2373L25.7346 20.2539L23.8771 32.3448L37.5971 32.3282L39.4546 20.2373ZM76.8491 45.767L93.2991 45.7472L93.6886 52.1754L69.2586 52.2049L66.316 3.64396L74.296 3.63432L76.8491 45.767ZM96.5251 32.7461C96.2908 28.8799 96.8767 25.4552 98.2827 22.4721C99.7354 19.4889 101.789 17.1805 104.444 15.5468C107.142 13.8665 110.171 13.0243 113.531 13.0203C116.564 13.0166 119.238 13.619 121.551 14.8274C123.908 15.9891 125.817 17.4543 127.278 19.2227L126.939 13.633L134.989 13.6232L137.322 52.1226L129.272 52.1323L128.925 46.4029C127.682 48.2212 125.93 49.7373 123.67 50.9512C121.41 52.1651 118.787 52.7739 115.8 52.7775C112.487 52.7815 109.403 51.9467 106.548 50.2731C103.69 48.553 101.353 46.18 99.5359 43.1542C97.763 40.0817 96.7594 36.6124 96.5251 32.7461ZM128.104 32.8477C127.943 30.1926 127.243 27.8875 126.004 25.9324C124.812 23.9773 123.299 22.4884 121.463 21.4658C119.628 20.4432 117.684 19.9331 115.63 19.9356C113.577 19.938 111.695 20.4527 109.983 21.4797C108.269 22.46 106.912 23.9291 105.91 25.8868C104.953 27.798 104.554 30.0811 104.715 32.7362C104.876 35.3914 105.554 37.7198 106.748 39.7215C107.99 41.7231 109.53 43.2585 111.368 44.3278C113.25 45.3504 115.194 45.8604 117.201 45.858C119.254 45.8555 121.137 45.3408 122.848 44.3139C124.559 43.287 125.892 41.7946 126.847 39.8369C127.846 37.8326 128.264 35.5028 128.104 32.8477ZM163.675 46.0115C168.295 46.0059 171.229 43.9759 172.477 39.9215L181.087 39.9111C180.275 43.4525 178.608 46.3661 176.086 48.6518C173.608 50.8908 170.397 52.1991 166.453 52.5765L166.627 55.4413C169.333 55.438 171.565 56.0642 173.321 57.3199C175.08 58.6221 176.03 60.4378 176.171 62.7668C176.312 65.0959 175.584 66.9369 173.986 68.2897C172.39 69.6892 170.309 70.3905 167.743 70.3936L158.503 70.4048L158.198 65.374L165.828 65.3648C167.135 65.3632 168.103 65.1757 168.734 64.8022C169.365 64.4288 169.651 63.753 169.591 62.7748C169.532 61.7966 169.164 61.1215 168.488 60.7497C167.813 60.3778 166.821 60.1927 165.515 60.1943L161.665 60.1989L161.199 52.513C158.003 52.1442 155.139 51.0995 152.608 49.3789C150.074 47.6118 148.046 45.3316 146.523 42.5383C145.045 39.6985 144.195 36.4619 143.975 32.8285C143.735 28.8691 144.318 25.3979 145.724 22.4147C147.174 19.385 149.273 17.0532 152.021 15.4194C154.769 13.7857 157.986 12.9665 161.672 12.9621C166.339 12.9564 170.257 14.0697 173.426 16.302C176.638 18.4876 178.906 21.6293 180.227 25.7271L171.617 25.7375C170.802 23.8286 169.591 22.3393 167.986 21.2698C166.381 20.2003 164.412 19.6669 162.079 19.6698C158.812 19.6737 156.269 20.8414 154.451 23.1728C152.676 25.4576 151.914 28.6729 152.165 32.8186C152.416 36.9644 153.569 40.2006 155.623 42.5273C157.725 44.854 160.408 46.0154 163.675 46.0115ZM294.732 52.5612C291.699 52.5649 288.936 52.0325 286.445 50.964C283.997 49.849 282.017 48.3607 280.504 46.4991C278.988 44.591 278.113 42.4724 277.878 40.1435L286.138 40.1335C286.377 41.7637 287.231 43.1369 288.698 44.2531C290.21 45.3228 292.039 45.8563 294.186 45.8537C296.426 45.851 298.127 45.4296 299.289 44.5897C300.496 43.7032 301.058 42.5844 300.976 41.2336C300.889 39.7896 300.124 38.719 298.681 38.022C297.286 37.3249 295.069 36.559 292.032 35.7241C289.09 34.9357 286.687 34.17 284.822 33.4269C282.957 32.6838 281.301 31.5445 279.855 30.0089C278.455 28.4733 277.679 26.4478 277.526 23.9324C277.402 21.8829 277.896 20.0189 279.007 18.3405C280.116 16.6155 281.761 15.2626 283.942 14.2817C286.169 13.3007 288.753 12.8084 291.693 12.8049C296.08 12.7996 299.671 13.9133 302.466 16.146C305.306 18.332 306.934 21.3347 307.352 25.1542L299.372 25.1638C299.128 23.4405 298.345 22.0672 297.023 21.0439C295.7 20.0207 293.966 19.5103 291.819 19.5129C289.719 19.5155 288.133 19.9133 287.061 20.7066C285.989 21.4998 285.493 22.5486 285.572 23.8528C285.634 24.8776 286.06 25.7389 286.849 26.4367C287.638 27.1346 288.581 27.6924 289.68 28.1104C290.776 28.4817 292.392 28.9689 294.529 29.5719C297.374 30.3138 299.708 31.0797 301.529 31.8694C303.394 32.6125 305.025 33.7286 306.422 35.2176C307.819 36.7066 308.616 38.6855 308.812 41.1542C308.945 43.3436 308.457 45.3007 307.348 47.0257C306.239 48.7506 304.594 50.1036 302.413 51.0845C300.279 52.0654 297.719 52.5576 294.732 52.5612Z" fill="white"/>
<path d="M47.0846 20.2281L46.4797 10.2464L38.3923 10.2561L37.1792 18.1523L47.0846 20.2281ZM45.227 32.319L35.3217 30.2432L33.467 42.3157L45.8319 42.3007L45.227 32.319ZM54.467 32.3078L64.467 32.2958L63.8622 22.3141L53.8622 22.3262L54.467 32.3078ZM54.8904 39.295L55.4953 49.2767L65.4953 49.2646L64.8904 39.2829L54.8904 39.295ZM44.1804 39.308L43.5756 29.3263L35.5067 29.336L34.2785 37.2103L44.1804 39.308ZM42.1637 52.2377L42.7686 62.2193L50.8375 62.2096L52.0657 54.3353L42.1637 52.2377ZM34.5337 52.2469L24.6318 50.1492L22.7453 62.2436L35.1386 62.2286L34.5337 52.2469ZM36.5504 39.3172L46.4524 41.4148L48.3388 29.3205L35.9456 29.3355L36.5504 39.3172ZM22.8305 39.3338L22.2256 29.3521L14.1567 29.3619L12.9285 37.2361L22.8305 39.3338ZM20.8137 52.2635L21.4186 62.2452L29.4875 62.2354L30.7157 54.3611L20.8137 52.2635ZM13.1837 52.2727L3.28178 50.175L1.39536 62.2694L13.7886 62.2544L13.1837 52.2727ZM15.2005 39.343L25.1024 41.4407L26.9888 29.3463L14.5956 29.3613L15.2005 39.343ZM4.35047 39.3561L-5.64952 39.3682L-5.04468 49.3499L4.95532 49.3378L4.35047 39.3561ZM3.92708 32.3689L3.32223 22.3873L-6.67776 22.3993L-6.07291 32.381L3.92708 32.3689ZM16.2471 32.354L16.8519 42.3357L24.9393 42.326L26.1524 34.4298L16.2471 32.354ZM18.1046 20.2631L28.0099 22.3389L29.8646 10.2664L17.4998 10.2814L18.1046 20.2631ZM7.32461 20.2761L-2.67539 20.2882L-2.07054 30.2699L7.92945 30.2578L7.32461 20.2761ZM6.90121 13.2889L6.29637 3.30725L-3.70363 3.31934L-3.09878 13.301L6.90121 13.2889ZM19.1512 13.2741L19.7561 23.2558L27.8402 23.246L29.056 15.3538L19.1512 13.2741ZM21.1106 0.554155L20.5058 -9.42754L12.4216 -9.41776L11.2059 -1.52548L21.1106 0.554155ZM28.7406 0.544931L38.6454 2.62456L40.5056 -9.45172L28.1358 -9.43676L28.7406 0.544931ZM26.7812 13.2649L16.8764 11.1853L15.0162 23.2616L27.386 23.2466L26.7812 13.2649ZM40.5012 13.2483L41.106 23.23L49.1902 23.2202L50.4059 15.3279L40.5012 13.2483ZM42.4606 0.528344L41.8558 -9.45335L33.7716 -9.44357L32.5559 -1.55129L42.4606 0.528344ZM50.0906 0.519119L59.9954 2.59875L61.8556 -9.47753L49.4858 -9.46257L50.0906 0.519119ZM48.1312 13.2391L38.2264 11.1595L36.3662 23.2357L48.736 23.2208L48.1312 13.2391ZM57.4412 13.2278L67.4412 13.2157L66.8363 3.23406L56.8363 3.24615L57.4412 13.2278ZM57.8646 20.215L58.4694 30.1967L68.4694 30.1846L67.8646 20.2029L57.8646 20.215ZM39.4546 20.2373L49.3599 22.3131L51.2146 10.2406L38.8497 10.2556L39.4546 20.2373ZM25.7346 20.2539L25.1297 10.2722L17.0423 10.282L15.8292 18.1781L25.7346 20.2539ZM23.8771 32.3448L13.9717 30.269L12.117 42.3415L24.4819 42.3265L23.8771 32.3448ZM37.5971 32.3282L38.2019 42.3099L46.2893 42.3002L47.5024 34.404L37.5971 32.3282ZM37.1792 18.1523L35.3217 30.2432L55.1324 34.3948L56.9899 22.3038L37.1792 18.1523ZM45.8319 42.3007L55.0719 42.2895L53.8622 22.3262L44.6222 22.3373L45.8319 42.3007ZM44.467 32.3199L44.8904 39.3071L64.8904 39.2829L64.467 32.2958L44.467 32.3199ZM54.2856 29.3133L43.5756 29.3263L44.7853 49.2897L55.4953 49.2767L54.2856 29.3133ZM34.2785 37.2103L32.2618 50.14L52.0657 54.3353L54.0824 41.4056L34.2785 37.2103ZM41.5589 42.256L33.9289 42.2652L35.1386 62.2286L42.7686 62.2193L41.5589 42.256ZM44.4357 54.3445L46.4524 41.4148L26.6485 37.2196L24.6318 50.1492L44.4357 54.3445ZM35.9456 29.3355L22.2256 29.3521L23.4353 49.3155L37.1553 49.2989L35.9456 29.3355ZM12.9285 37.2361L10.9118 50.1658L30.7157 54.3611L32.7324 41.4314L12.9285 37.2361ZM20.2089 42.2818L12.5789 42.291L13.7886 62.2544L21.4186 62.2452L20.2089 42.2818ZM23.0857 54.3703L25.1024 41.4407L5.2985 37.2454L3.28178 50.175L23.0857 54.3703ZM14.5956 29.3613L3.74562 29.3744L4.95532 49.3378L15.8053 49.3247L14.5956 29.3613ZM14.3505 39.344L13.9271 32.3569L-6.07291 32.381L-5.64952 39.3682L14.3505 39.344ZM4.53192 42.3506L16.8519 42.3357L15.6422 22.3724L3.32223 22.3873L4.53192 42.3506ZM26.1524 34.4298L28.0099 22.3389L8.19926 18.1873L6.34173 30.2783L26.1524 34.4298ZM17.4998 10.2814L6.71976 10.2944L7.92945 30.2578L18.7094 30.2448L17.4998 10.2814ZM17.3246 20.264L16.9012 13.2768L-3.09878 13.301L-2.67539 20.2882L17.3246 20.264ZM7.50606 23.2706L19.7561 23.2558L18.5464 3.29244L6.29637 3.30725L7.50606 23.2706ZM29.056 15.3538L31.0154 2.63379L11.2059 -1.52548L9.24645 11.1945L29.056 15.3538ZM21.7155 10.5358L29.3455 10.5266L28.1358 -9.43676L20.5058 -9.42754L21.7155 10.5358ZM18.8359 -1.5347L16.8764 11.1853L36.6859 15.3445L38.6454 2.62456L18.8359 -1.5347ZM27.386 23.2466L41.106 23.23L39.8963 3.26663L26.1764 3.28321L27.386 23.2466ZM50.4059 15.3279L52.3654 2.60798L32.5559 -1.55129L30.5964 11.1687L50.4059 15.3279ZM43.0655 10.51L50.6955 10.5008L49.4858 -9.46257L41.8558 -9.45335L43.0655 10.51ZM40.1859 -1.56052L38.2264 11.1595L58.0359 15.3187L59.9954 2.59875L40.1859 -1.56052ZM48.736 23.2208L58.046 23.2095L56.8363 3.24615L47.5263 3.2574L48.736 23.2208ZM47.4412 13.2399L47.8646 20.2271L67.8646 20.2029L67.4412 13.2157L47.4412 13.2399ZM57.2597 10.2333L46.4797 10.2464L47.6894 30.2097L58.4694 30.1967L57.2597 10.2333ZM38.8497 10.2556L25.1297 10.2722L26.3394 30.2356L40.0594 30.219L38.8497 10.2556ZM15.8292 18.1781L13.9717 30.269L33.7824 34.4206L35.6399 22.3296L15.8292 18.1781ZM24.4819 42.3265L38.2019 42.3099L36.9922 22.3465L23.2722 22.3631L24.4819 42.3265ZM47.5024 34.404L49.3599 22.3131L29.5492 18.1615L27.6917 30.2525L47.5024 34.404ZM76.8491 45.767L66.8491 45.7791L67.4539 55.7608L77.4539 55.7487L76.8491 45.767ZM93.2991 45.7472L103.299 45.7351L102.694 35.7534L92.6942 35.7655L93.2991 45.7472ZM93.6886 52.1754L94.2934 62.1571L104.293 62.145L103.689 52.1633L93.6886 52.1754ZM69.2586 52.2049L59.2586 52.217L59.8635 62.1987L69.8635 62.1866L69.2586 52.2049ZM66.316 3.64396L65.7112 -6.33773L55.7112 -6.32564L56.316 3.65605L66.316 3.64396ZM74.296 3.63432L84.296 3.62223L83.6912 -6.35946L73.6912 -6.34738L74.296 3.63432ZM77.4539 55.7487L93.9039 55.7288L92.6942 35.7655L76.2442 35.7853L77.4539 55.7487ZM83.2991 45.7592L83.6886 52.1874L103.689 52.1633L103.299 45.7351L83.2991 45.7592ZM93.0838 42.1937L68.6538 42.2232L69.8635 62.1866L94.2934 62.1571L93.0838 42.1937ZM79.2586 52.1928L76.316 3.63187L56.316 3.65605L59.2586 52.217L79.2586 52.1928ZM66.9209 13.6257L74.9009 13.616L73.6912 -6.34738L65.7112 -6.33773L66.9209 13.6257ZM64.296 3.64641L66.8491 45.7791L86.8491 45.7549L84.296 3.62223L64.296 3.64641ZM98.2827 22.4721L89.2188 17.6934L89.1929 17.7464L89.1678 17.7998L98.2827 22.4721ZM104.444 15.5468L110.066 24.1255L110.086 24.1127L110.107 24.0998L104.444 15.5468ZM121.551 14.8274L117.32 23.61L117.432 23.6684L117.545 23.7242L121.551 14.8274ZM127.278 19.2227L119.695 25.2879L139.067 48.7432L137.278 19.2106L127.278 19.2227ZM126.939 13.633L126.334 3.65127L116.334 3.66336L116.939 13.645L126.939 13.633ZM134.989 13.6232L144.989 13.6111L144.384 3.62945L134.384 3.64154L134.989 13.6232ZM137.322 52.1226L137.927 62.1043L147.927 62.0922L147.322 52.1105L137.322 52.1226ZM129.272 52.1323L119.272 52.1444L119.877 62.1261L129.877 62.114L129.272 52.1323ZM128.925 46.4029L138.925 46.3908L137.098 16.239L120.539 40.4564L128.925 46.4029ZM123.67 50.9512L118.52 42.1009L118.52 42.1009L123.67 50.9512ZM106.548 50.2731L101.747 58.736L101.801 58.7684L101.855 58.8002L106.548 50.2731ZM99.5359 43.1542L90.9232 47.7361L90.9699 47.817L91.018 47.8971L99.5359 43.1542ZM126.004 25.9324L117.524 30.7374L117.572 30.8167L117.622 30.8952L126.004 25.9324ZM121.463 21.4658L116.976 30.1103L116.976 30.1103L121.463 21.4658ZM109.983 21.4797L115.35 30.2102L115.434 30.162L115.517 30.112L109.983 21.4797ZM105.91 25.8868L96.9276 20.945L96.9101 20.9794L96.8928 21.0138L105.91 25.8868ZM106.748 39.7215L98.2159 44.44L98.2629 44.5188L98.3113 44.5968L106.748 39.7215ZM111.368 44.3278L106.707 52.8734L106.843 52.9525L106.982 53.0275L111.368 44.3278ZM122.848 44.3139L128.382 52.9463L128.382 52.9462L122.848 44.3139ZM126.847 39.8369L117.82 34.9827L117.803 35.0179L117.785 35.0532L126.847 39.8369ZM106.525 32.734C106.375 30.2615 106.765 28.487 107.398 27.1444L89.1678 17.7998C86.9885 22.4235 86.2064 27.4983 86.5251 32.7582L106.525 32.734ZM107.347 27.2508C108.084 25.7362 108.994 24.7853 110.066 24.1255L98.8213 6.9682C94.5844 9.57571 91.3866 13.2417 89.2188 17.6934L107.347 27.2508ZM110.107 24.0998C111.263 23.3802 112.533 23.0039 114.136 23.002L112.926 3.03858C107.809 3.04477 103.021 4.35287 98.7799 6.99382L110.107 24.0998ZM114.136 23.002C115.823 22.9999 116.781 23.3282 117.32 23.61L125.782 6.0448C121.695 3.90977 117.306 3.03329 112.926 3.03858L114.136 23.002ZM117.545 23.7242C118.735 24.3107 119.352 24.8728 119.695 25.2879L134.86 13.1575C132.282 10.0357 129.082 7.66763 125.557 5.93058L117.545 23.7242ZM137.278 19.2106L136.939 13.6209L116.939 13.645L117.278 19.2348L137.278 19.2106ZM127.544 23.6146L135.594 23.6049L134.384 3.64154L126.334 3.65127L127.544 23.6146ZM124.989 13.6353L127.322 52.1347L147.322 52.1105L144.989 13.6111L124.989 13.6353ZM136.717 42.1409L128.667 42.1507L129.877 62.114L137.927 62.1043L136.717 42.1409ZM139.272 52.1203L138.925 46.3908L118.925 46.4149L119.272 52.1444L139.272 52.1203ZM120.539 40.4564C120.248 40.8826 119.687 41.474 118.52 42.1009L128.82 59.8016C132.173 58.0006 135.115 55.5597 137.31 52.3493L120.539 40.4564ZM118.52 42.1009C117.817 42.4782 116.796 42.7939 115.195 42.7958L116.405 62.7592C120.778 62.7539 125.003 61.8521 128.82 59.8016L118.52 42.1009ZM115.195 42.7958C113.667 42.7977 112.422 42.4391 111.24 41.7461L101.855 58.8002C106.383 61.4543 111.307 62.7654 116.405 62.7592L115.195 42.7958ZM111.348 41.8103C110.106 41.0623 109.014 40.0104 108.054 38.4112L91.018 47.8971C93.6914 52.3495 97.2744 56.0436 101.747 58.736L111.348 41.8103ZM108.149 38.5722C107.283 37.0723 106.675 35.2001 106.525 32.734L86.5251 32.7582C86.8442 38.0247 88.2428 43.0912 90.9232 47.7361L108.149 38.5722ZM138.104 32.8356C137.856 28.755 136.738 24.6809 134.387 20.9696L117.622 30.8952C117.748 31.0941 118.029 31.6302 118.104 32.8598L138.104 32.8356ZM134.485 21.1275C132.409 17.7229 129.57 14.8381 125.95 12.8213L116.976 30.1103C117.028 30.1388 117.216 30.2318 117.524 30.7374L134.485 21.1275ZM125.95 12.8213C122.535 10.9187 118.834 9.94926 115.025 9.95386L116.235 29.9172C116.533 29.9169 116.72 29.9676 116.976 30.1103L125.95 12.8213ZM115.025 9.95386C111.216 9.95847 107.633 10.9367 104.45 12.8473L115.517 30.112C115.756 29.9688 115.937 29.9176 116.235 29.9172L115.025 9.95386ZM104.617 12.7491C101.179 14.7156 98.6472 17.5834 96.9276 20.945L114.893 30.8287C115.047 30.5275 115.171 30.3752 115.231 30.3095C115.287 30.2488 115.322 30.2258 115.35 30.2102L104.617 12.7491ZM96.8928 21.0138C95.0436 24.7044 94.4725 28.7446 94.7151 32.7483L114.715 32.7241C114.636 31.4176 114.861 30.8916 114.927 30.7599L96.8928 21.0138ZM94.7151 32.7483C94.9586 36.7678 96.022 40.7642 98.2159 44.44L115.281 35.0029C115.086 34.6753 114.793 34.0149 114.715 32.7241L94.7151 32.7483ZM98.3113 44.5968C100.385 47.9412 103.168 50.8149 106.707 52.8734L116.028 35.7822C115.891 35.7021 115.594 35.5051 115.186 34.8462L98.3113 44.5968ZM106.982 53.0275C110.347 54.8563 114.005 55.8443 117.806 55.8397L116.596 35.8763C116.384 35.8766 116.153 35.8444 115.754 35.628L106.982 53.0275ZM117.806 55.8397C121.615 55.8351 125.198 54.8569 128.382 52.9463L117.314 35.6815C117.075 35.8248 116.894 35.876 116.596 35.8763L117.806 55.8397ZM128.382 52.9462C131.756 50.9211 134.246 48.0298 135.908 44.6207L117.785 35.0532C117.539 35.5595 117.362 35.6529 117.314 35.6815L128.382 52.9462ZM135.874 44.6911C137.723 40.9788 138.351 36.9231 138.104 32.8356L118.104 32.8598C118.178 34.0826 117.968 34.6863 117.82 34.9827L135.874 44.6911ZM172.477 39.9215L171.872 29.9398L164.895 29.9483L162.883 36.4871L172.477 39.9215ZM181.087 39.9111L190.861 42.675L193.787 29.9133L180.482 29.9294L181.087 39.9111ZM176.086 48.6518L183.053 56.2226L183.058 56.2179L183.064 56.2132L176.086 48.6518ZM166.453 52.5765L164.914 42.6399L155.903 43.5023L156.453 52.5886L166.453 52.5765ZM166.627 55.4413L156.627 55.4534L157.232 65.4351L167.232 65.423L166.627 55.4413ZM173.321 57.3199L178.983 49.4334L178.91 49.3797L178.837 49.3273L173.321 57.3199ZM173.986 68.2897L167.241 60.524L167.18 60.5762L167.119 60.6293L173.986 68.2897ZM158.503 70.4048L148.503 70.4169L149.108 80.3985L159.108 80.3865L158.503 70.4048ZM158.198 65.374L157.593 55.3923L147.593 55.4044L148.198 65.3861L158.198 65.374ZM168.488 60.7497L164.052 69.4222L164.052 69.4222L168.488 60.7497ZM161.665 60.1989L151.665 60.211L152.269 70.1927L162.269 70.1806L161.665 60.1989ZM161.199 52.513L171.199 52.5009L170.661 43.6247L161.767 42.5983L161.199 52.513ZM152.608 49.3789L147.197 57.4452L147.25 57.4824L147.304 57.5189L152.608 49.3789ZM146.523 42.5383L137.687 46.7134L137.734 46.8036L137.783 46.8929L146.523 42.5383ZM145.724 22.4147L136.633 17.6931L136.621 17.7177L136.609 17.7425L145.724 22.4147ZM152.021 15.4194L146.519 6.76766L146.519 6.76767L152.021 15.4194ZM173.426 16.302L167.972 24.3387L168.044 24.3898L168.118 24.4397L173.426 16.302ZM180.227 25.7271L180.832 35.7088L193.782 35.6932L189.749 23.1914L180.227 25.7271ZM171.617 25.7375L162.434 29.1784L165.232 35.7277L172.222 35.7192L171.617 25.7375ZM154.451 23.1728L146.405 16.7619L146.399 16.7693L146.393 16.7766L154.451 23.1728ZM155.623 42.5273L148.274 48.8659L148.315 48.9115L148.355 48.9567L155.623 42.5273ZM164.28 55.9931C168.049 55.9886 171.973 55.1482 175.377 52.7931C178.831 50.4029 180.947 47.007 182.071 43.3559L162.883 36.4871C162.812 36.7183 162.776 36.7286 162.852 36.6181C162.889 36.5635 162.947 36.4894 163.029 36.407C163.111 36.3241 163.204 36.2457 163.304 36.1764C163.404 36.1074 163.495 36.0582 163.568 36.0251C163.604 36.009 163.632 35.9979 163.652 35.9908C163.672 35.9836 163.683 35.9808 163.683 35.9808C163.68 35.9814 163.5 36.0292 163.07 36.0298L164.28 55.9931ZM173.082 49.9032L181.692 49.8928L180.482 29.9294L171.872 29.9398L173.082 49.9032ZM171.313 37.1472C170.905 38.9278 170.158 40.1393 169.108 41.0904L183.064 56.2132C187.058 52.5928 189.645 47.9773 190.861 42.675L171.313 37.1472ZM169.119 41.081C168.353 41.7732 167.146 42.4263 164.914 42.6399L167.992 62.5132C173.649 61.9719 178.863 60.0085 183.053 56.2226L169.119 41.081ZM156.453 52.5886L156.627 55.4534L176.627 55.4292L176.453 52.5644L156.453 52.5886ZM167.232 65.423C167.819 65.4223 168.099 65.4911 168.151 65.5056C168.174 65.512 168.143 65.5051 168.073 65.4722C168.002 65.4385 167.908 65.3864 167.805 65.3125L178.837 49.3273C174.809 46.4469 170.264 45.4545 166.022 45.4596L167.232 65.423ZM167.659 65.2064C167.301 64.9414 166.856 64.4817 166.527 63.8522C166.212 63.2513 166.174 62.8233 166.171 62.7789L186.171 62.7547C185.864 57.6859 183.562 52.8231 178.983 49.4334L167.659 65.2064ZM166.171 62.7789C166.168 62.7313 166.157 62.3293 166.38 61.7662C166.612 61.1801 166.964 60.7592 167.241 60.524L180.73 76.0554C184.771 72.6344 186.478 67.8221 186.171 62.7547L166.171 62.7789ZM167.119 60.6293C167.18 60.5758 167.254 60.5224 167.335 60.4761C167.416 60.43 167.483 60.4029 167.523 60.3893C167.607 60.361 167.512 60.4115 167.138 60.4119L168.348 80.3753C172.827 80.3699 177.263 79.0986 180.852 75.9501L167.119 60.6293ZM167.138 60.4119L157.898 60.4231L159.108 80.3865L168.348 80.3753L167.138 60.4119ZM168.503 70.3927L168.198 65.3619L148.198 65.3861L148.503 70.4169L168.503 70.3927ZM158.803 75.3557L166.433 75.3465L165.223 55.3831L157.593 55.3923L158.803 75.3557ZM166.433 75.3465C168.364 75.3441 171.417 75.1224 174.221 73.4628L163.247 56.1417C164.105 55.6338 164.808 55.4703 165.069 55.4198C165.348 55.3658 165.429 55.3828 165.223 55.3831L166.433 75.3465ZM174.221 73.4628C178.777 70.7651 179.792 66.0769 179.591 62.7627L159.591 62.7869C159.556 62.2125 159.577 61.0498 160.153 59.6867C160.78 58.2035 161.871 56.9567 163.247 56.1417L174.221 73.4628ZM179.591 62.7627C179.39 59.4485 177.807 54.7634 172.925 52.0771L164.052 69.4222C162.577 68.6107 161.335 67.3667 160.529 65.8853C159.787 64.5237 159.626 63.3612 159.591 62.7869L179.591 62.7627ZM172.925 52.0771C169.921 50.4246 166.841 50.2102 164.91 50.2126L166.119 70.1759C166.326 70.1757 166.247 70.1929 165.961 70.1396C165.694 70.0897 164.971 69.9279 164.052 69.4222L172.925 52.0771ZM164.91 50.2126L161.06 50.2172L162.269 70.1806L166.119 70.1759L164.91 50.2126ZM171.665 60.1868L171.199 52.5009L151.199 52.5251L151.665 60.211L171.665 60.1868ZM161.767 42.5983C160.125 42.4088 158.913 41.9187 157.913 41.2389L147.304 57.5189C151.366 60.2803 155.881 61.8796 160.631 62.4277L161.767 42.5983ZM158.02 41.3127C156.918 40.5438 156.012 39.5572 155.264 38.1837L137.783 46.8929C140.08 51.106 143.231 54.6797 147.197 57.4452L158.02 41.3127ZM155.359 38.3633C154.662 37.0242 154.122 35.244 153.975 32.8164L133.975 32.8406C134.268 37.6797 135.427 42.3728 137.687 46.7134L155.359 38.3633ZM153.975 32.8164C153.817 30.2073 154.222 28.3965 154.839 27.087L136.609 17.7425C134.414 22.3992 133.653 27.5309 133.975 32.8406L153.975 32.8164ZM154.816 27.1364C155.521 25.6615 156.415 24.7293 157.522 24.0712L146.519 6.76767C142.13 9.37714 138.827 13.1084 136.633 17.6931L154.816 27.1364ZM157.522 24.0712C158.634 23.4099 160.117 22.9464 162.277 22.9438L161.068 2.98038C155.854 2.98669 150.903 4.16137 146.519 6.76766L157.522 24.0712ZM162.277 22.9438C165.322 22.9401 166.99 23.6472 167.972 24.3387L178.88 8.26517C173.524 4.4922 167.356 2.97278 161.068 2.98038L162.277 22.9438ZM168.118 24.4397C169.093 25.1031 170.018 26.1336 170.705 28.2629L189.749 23.1914C187.793 17.125 184.184 11.872 178.734 8.16419L168.118 24.4397ZM179.622 15.7454L171.012 15.7558L172.222 35.7192L180.832 35.7088L179.622 15.7454ZM180.801 22.2967C179.236 18.6358 176.72 15.4145 173.208 13.0739L162.765 29.4657C162.72 29.4359 162.665 29.3946 162.608 29.342C162.55 29.2894 162.5 29.236 162.461 29.1875C162.377 29.0844 162.382 29.0568 162.434 29.1784L180.801 22.2967ZM173.208 13.0739C169.47 10.5832 165.351 9.68339 161.474 9.68808L162.684 29.6515C163.089 29.651 163.247 29.6978 163.218 29.6901C163.203 29.6859 163.147 29.6693 163.061 29.6309C162.974 29.5921 162.873 29.5376 162.765 29.4657L173.208 13.0739ZM161.474 9.68808C155.496 9.69531 150.126 11.9914 146.405 16.7619L162.497 29.5837C162.541 29.5273 162.548 29.5304 162.508 29.5619C162.49 29.5765 162.466 29.5939 162.437 29.6119C162.408 29.63 162.378 29.6456 162.351 29.6582C162.292 29.6854 162.268 29.6867 162.304 29.6794C162.343 29.6715 162.463 29.6517 162.684 29.6515L161.474 9.68808ZM146.393 16.7766C142.76 21.4535 141.827 27.2553 142.165 32.8307L162.165 32.8065C162.084 31.4786 162.188 30.6259 162.306 30.1291C162.363 29.8878 162.421 29.7408 162.457 29.6635C162.475 29.6245 162.489 29.5999 162.497 29.5867C162.501 29.5799 162.504 29.5754 162.505 29.5728C162.507 29.5702 162.508 29.569 162.508 29.569L146.393 16.7766ZM142.165 32.8307C142.504 38.4219 144.144 44.1877 148.274 48.8659L162.973 36.1888C162.96 36.1745 162.814 36.0118 162.638 35.5196C162.453 34.999 162.245 34.1325 162.165 32.8065L142.165 32.8307ZM148.355 48.9567C152.655 53.7176 158.301 56.0004 164.28 55.9931L163.07 36.0298C162.849 36.03 162.728 36.0106 162.687 36.0027C162.65 35.9956 162.674 35.9968 162.736 36.0238C162.765 36.0364 162.797 36.0519 162.828 36.0699C162.86 36.0878 162.886 36.1052 162.906 36.1198C162.949 36.1511 162.942 36.1542 162.891 36.0979L148.355 48.9567ZM286.445 50.964L282.734 60.0008L282.843 60.0504L282.953 60.0975L286.445 50.964ZM280.504 46.4991L272.791 52.4032L272.828 52.4507L272.867 52.4978L280.504 46.4991ZM277.878 40.1435L277.274 30.1618L266.866 30.1744L267.911 40.5545L277.878 40.1435ZM286.138 40.1335L296.05 39.269L294.713 30.1407L285.534 30.1518L286.138 40.1335ZM288.698 44.2531L282.924 52.0551L283.073 52.1685L283.226 52.2766L288.698 44.2531ZM299.289 44.5897L305.479 52.7897L305.509 52.7679L305.539 52.7459L299.289 44.5897ZM298.681 38.022L294.624 46.8935L294.687 46.9248L294.75 46.9553L298.681 38.022ZM292.032 35.7241L294.157 26.112L294.125 26.1031L294.093 26.0945L292.032 35.7241ZM284.822 33.4269L281.586 42.6662L281.586 42.6662L284.822 33.4269ZM279.855 30.0089L272.621 36.4761L272.681 36.5421L272.742 36.6071L279.855 30.0089ZM279.007 18.3405L287.468 24.1749L287.503 24.1225L287.537 24.0695L279.007 18.3405ZM283.942 14.2817L279.447 5.11181L279.413 5.12663L279.38 5.14172L283.942 14.2817ZM302.466 16.146L296.488 23.7888L296.563 23.8494L296.64 23.9087L302.466 16.146ZM307.352 25.1542L307.957 35.1359L318.457 35.1232L317.311 24.6558L307.352 25.1542ZM299.372 25.1638L289.454 25.9825L290.755 35.1567L299.977 35.1455L299.372 25.1638ZM297.023 21.0439L302.87 13.2981L302.87 13.2981L297.023 21.0439ZM287.061 20.7066L280.788 12.5683L280.788 12.5683L287.061 20.7066ZM286.849 26.4367L280.45 33.727L280.45 33.727L286.849 26.4367ZM289.68 28.1104L286.599 37.4102L286.782 37.4795L286.966 37.542L289.68 28.1104ZM294.529 29.5719L292.335 39.1648L292.436 39.1933L292.537 39.2197L294.529 29.5719ZM301.529 31.8694L297.997 40.9858L298.144 41.0495L298.293 41.1087L301.529 31.8694ZM306.422 35.2176L299.295 41.7997L299.295 41.7997L306.422 35.2176ZM308.812 41.1542L318.812 41.1421L318.806 41.048L318.799 40.9538L308.812 41.1542ZM307.348 47.0257L298.818 41.2966L298.818 41.2966L307.348 47.0257ZM302.413 51.0845L297.851 41.9445L297.816 41.9602L297.782 41.9761L302.413 51.0845ZM294.127 42.5795C292.288 42.5817 290.945 42.2632 289.937 41.8305L282.953 60.0975C286.927 61.8018 291.109 62.548 295.337 62.5429L294.127 42.5795ZM290.155 41.9273C289.031 41.4152 288.466 40.901 288.141 40.5004L272.867 52.4978C275.567 55.8203 278.963 58.2828 282.734 60.0008L290.155 41.9273ZM288.217 40.5951C287.951 40.2601 287.878 40.0479 287.846 39.7324L267.911 40.5545C268.348 44.897 270.025 48.9219 272.791 52.4032L288.217 40.5951ZM278.483 50.1252L286.743 50.1152L285.534 30.1518L277.274 30.1618L278.483 50.1252ZM276.227 40.998C276.904 45.623 279.446 49.4105 282.924 52.0551L294.473 36.4512C294.652 36.5877 295.029 36.9225 295.39 37.5029C295.762 38.1015 295.971 38.7286 296.05 39.269L276.227 40.998ZM283.226 52.2766C286.863 54.8509 290.921 55.84 294.79 55.8354L293.581 35.872C293.339 35.8723 293.33 35.8423 293.486 35.8879C293.659 35.9383 293.911 36.0458 294.171 36.2297L283.226 52.2766ZM294.79 55.8354C298.077 55.8314 302.081 55.2447 305.479 52.7897L293.1 36.3897C293.66 35.9851 294.1 35.862 294.19 35.8396C294.269 35.82 294.101 35.8714 293.581 35.872L294.79 55.8354ZM305.539 52.7459C308.886 50.2864 311.284 46.3081 310.976 41.2215L290.976 41.2457C290.919 40.3014 291.093 39.2187 291.604 38.2027C292.091 37.2321 292.705 36.6794 293.04 36.4336L305.539 52.7459ZM310.976 41.2215C310.831 38.8207 310.068 36.2436 308.383 33.8849C306.729 31.571 304.608 30.053 302.613 29.0887L294.75 46.9553C294.197 46.688 293.18 46.0538 292.291 44.8105C291.371 43.5223 291.034 42.2024 290.976 41.2457L310.976 41.2215ZM302.738 29.1505C300.368 27.9665 297.324 26.9824 294.157 26.112L289.907 45.3363C292.814 46.1355 294.204 46.6834 294.624 46.8935L302.738 29.1505ZM294.093 26.0945C291.366 25.3637 289.395 24.7201 288.058 24.1876L281.586 42.6662C283.98 43.6199 286.815 44.5078 289.971 45.3537L294.093 26.0945ZM288.058 24.1876C287.717 24.0517 287.373 23.8417 286.967 23.4108L272.742 36.6071C275.229 39.2473 278.197 41.3159 281.586 42.6662L288.058 24.1876ZM287.088 23.5418C287.208 23.6733 287.312 23.8132 287.396 23.951C287.48 24.0877 287.53 24.1991 287.556 24.2686C287.608 24.4042 287.551 24.3234 287.526 23.9204L267.526 23.9445C267.785 28.2208 269.202 32.7261 272.621 36.4761L287.088 23.5418ZM287.526 23.9204C287.525 23.9011 287.527 23.9113 287.524 23.9447C287.521 23.9787 287.513 24.0227 287.501 24.071C287.488 24.1192 287.473 24.1568 287.463 24.1805C287.452 24.2037 287.451 24.2018 287.468 24.1749L270.547 12.5061C268.318 15.8701 267.274 19.7759 267.526 23.9445L287.526 23.9204ZM287.537 24.0695C287.54 24.0652 287.693 23.7864 288.504 23.4216L279.38 5.14172C275.829 6.73877 272.693 9.16583 270.478 12.6115L287.537 24.0695ZM288.437 23.4515C289.252 23.0925 290.47 22.7888 292.298 22.7866L291.088 2.82319C287.036 2.82809 283.086 3.5089 279.447 5.11181L288.437 23.4515ZM292.298 22.7866C294.96 22.7834 296.04 23.4314 296.488 23.7888L308.445 8.50306C303.301 4.39511 297.199 2.81581 291.088 2.82319L292.298 22.7866ZM296.64 23.9087C296.914 24.1192 297.252 24.3534 297.394 25.6526L317.311 24.6558C316.617 18.3161 313.697 12.5448 308.292 8.38324L296.64 23.9087ZM306.748 15.1725L298.768 15.1821L299.977 35.1455L307.957 35.1359L306.748 15.1725ZM309.291 24.3451C308.69 20.1107 306.566 16.1586 302.87 13.2981L291.175 28.7897C290.762 28.4706 290.314 27.9937 289.962 27.3763C289.617 26.772 289.493 26.2593 289.454 25.9825L309.291 24.3451ZM302.87 13.2981C299.15 10.4184 294.92 9.52675 291.215 9.53123L292.424 29.4946C292.715 29.4943 292.682 29.5304 292.424 29.4543C292.137 29.3701 291.674 29.176 291.175 28.7897L302.87 13.2981ZM291.215 9.53123C288.072 9.53503 284.128 10.0965 280.788 12.5683L293.335 28.8449C292.712 29.3058 292.197 29.4615 292.034 29.5022C291.884 29.54 291.978 29.4952 292.424 29.4946L291.215 9.53123ZM280.788 12.5683C277.333 15.1245 275.285 19.1351 275.572 23.8649L295.572 23.8408C295.622 24.663 295.495 25.7143 294.993 26.7747C294.5 27.8173 293.827 28.4807 293.335 28.8449L280.788 12.5683ZM275.572 23.8649C275.801 27.639 277.523 31.138 280.45 33.727L293.247 19.1465C293.814 19.6484 294.416 20.3639 294.876 21.2945C295.336 22.2244 295.528 23.1162 295.572 23.8408L275.572 23.8649ZM280.45 33.727C282.335 35.394 284.441 36.5892 286.599 37.4102L292.761 18.8106C292.722 18.7957 292.94 18.8751 293.247 19.1465L280.45 33.727ZM286.966 37.542C288.326 38.0027 290.151 38.5486 292.335 39.1648L296.723 19.979C294.633 19.3892 293.227 18.9608 292.394 18.6787L286.966 37.542ZM292.537 39.2197C295.086 39.8845 296.855 40.4906 297.997 40.9858L305.06 22.753C302.56 21.6687 299.662 20.7432 296.521 19.9242L292.537 39.2197ZM298.293 41.1087C298.676 41.2614 298.978 41.4626 299.295 41.7997L313.55 28.6355C311.072 25.9945 308.112 23.9636 304.765 22.6301L298.293 41.1087ZM299.295 41.7997C299.169 41.6659 299.06 41.5235 298.971 41.3827C298.883 41.243 298.828 41.1277 298.798 41.053C298.739 40.907 298.795 40.972 298.825 41.3546L318.799 40.9538C318.463 36.7309 316.984 32.2966 313.55 28.6355L299.295 41.7997ZM298.812 41.1663C298.817 41.2525 298.814 41.3024 298.813 41.322C298.811 41.3409 298.81 41.3396 298.814 41.3242C298.818 41.3086 298.823 41.2926 298.828 41.2807C298.833 41.269 298.833 41.274 298.818 41.2966L315.877 52.7547C318.112 49.2786 319.064 45.2997 318.812 41.1421L298.812 41.1663ZM298.818 41.2966C298.815 41.3009 298.662 41.5798 297.851 41.9445L306.975 60.2245C310.526 58.6274 313.662 56.2003 315.877 52.7547L298.818 41.2966ZM297.782 41.9761C297.161 42.2612 296.04 42.5772 294.127 42.5795L295.337 62.5429C299.397 62.538 303.397 61.8695 307.045 60.1929L297.782 41.9761Z" fill="#00008B" mask="url(#path-1-outside-1_1794_1339)"/>
</g>
<mask id="path-3-outside-2_1794_1339" maskUnits="userSpaceOnUse" x="178.229" y="2.01054" width="101.854" height="65.0065" fill="black">
<rect fill="white" x="178.229" y="2.01054" width="101.854" height="65.0065"/>
<path d="M244.325 56.146C237.298 56.1547 229.246 53.6532 222.654 49.4848C219.313 52.6282 214.785 54.1897 210.136 54.1954C200.73 54.207 190.941 47.7769 190.173 34.8387C189.232 19.0073 200.421 12.1691 213.163 12.1533L213.272 12.1532C220.272 12.1446 227.722 14.1827 233.85 17.9149C237.495 14.3617 242.046 12.7183 246.613 12.7126C256.62 12.7003 266.653 20.4678 267.389 32.86C268.114 45.0611 260.324 52.9597 250.22 55.4836C248.388 55.9499 246.403 56.1434 244.325 56.146ZM238.316 52.1134C241.378 52.1096 244.427 51.4234 247.264 49.9185C253.016 46.8541 257.602 41.1978 259.381 34.3166C260.25 30.9852 260.548 28.1732 260.408 25.8258C260.011 19.1384 256.114 16.1404 251.711 16.1459C247.665 16.1508 243.165 18.6678 240.56 23.1478C244.371 26.9921 246.369 32.5583 246.663 37.4988C247.02 43.5039 244.862 48.6112 240.35 48.6168C239.229 48.6181 237.981 48.3194 236.6 47.6387C231.842 45.3242 229.041 38.6944 228.689 32.7712C228.373 27.4486 229.732 23.1612 232.056 19.9372C227.723 16.9671 223.267 15.6077 219.056 15.6129L218.947 15.613C209.322 15.6249 200.992 22.7052 198.209 33.4093C197.387 36.6042 197.09 39.4162 197.231 41.7909C197.615 48.26 201.154 51.6678 205.365 51.6626C205.583 51.6624 205.829 51.6621 206.046 51.6345C210.127 51.2746 213.498 48.1858 215.962 44.0881C212.147 40.162 210.145 34.5411 209.851 29.6006C209.498 23.6502 211.607 18.6521 216.01 18.6467C217.158 18.6453 218.492 18.9985 219.959 19.761C224.67 22.1847 227.473 28.8691 227.825 34.7923C228.141 40.1149 226.807 44.3477 224.45 47.4899C228.477 50.3784 233.394 52.1194 238.316 52.1134ZM217.823 40.4279C219.264 37.0686 220.194 33.3822 220.545 30.0788C220.766 28.2769 220.816 26.83 220.75 25.7109C220.619 23.5 220.044 22.5726 219.333 22.5734L219.306 22.5735C217.665 22.5755 215.269 27.3555 215.603 32.9784C215.747 35.4077 216.394 38.0002 217.823 40.4279ZM237.197 44.799C238.838 44.7969 241.282 39.9077 240.945 34.2302C240.802 31.8282 240.13 29.263 238.702 26.8626C237.263 30.2493 236.335 33.9629 235.986 37.2936C235.766 39.1228 235.716 40.5697 235.782 41.6888C235.912 43.8724 236.486 44.7998 237.197 44.799Z"/>
</mask>
<g filter="url(#filter1_i_1794_1339)">
<path d="M244.325 56.146C237.298 56.1547 229.246 53.6532 222.654 49.4848C219.313 52.6282 214.785 54.1897 210.136 54.1954C200.73 54.207 190.941 47.7769 190.173 34.8387C189.232 19.0073 200.421 12.1691 213.163 12.1533L213.272 12.1532C220.272 12.1446 227.722 14.1827 233.85 17.9149C237.495 14.3617 242.046 12.7183 246.613 12.7126C256.62 12.7003 266.653 20.4678 267.389 32.86C268.114 45.0611 260.324 52.9597 250.22 55.4836C248.388 55.9499 246.403 56.1434 244.325 56.146ZM238.316 52.1134C241.378 52.1096 244.427 51.4234 247.264 49.9185C253.016 46.8541 257.602 41.1978 259.381 34.3166C260.25 30.9852 260.548 28.1732 260.408 25.8258C260.011 19.1384 256.114 16.1404 251.711 16.1459C247.665 16.1508 243.165 18.6678 240.56 23.1478C244.371 26.9921 246.369 32.5583 246.663 37.4988C247.02 43.5039 244.862 48.6112 240.35 48.6168C239.229 48.6181 237.981 48.3194 236.6 47.6387C231.842 45.3242 229.041 38.6944 228.689 32.7712C228.373 27.4486 229.732 23.1612 232.056 19.9372C227.723 16.9671 223.267 15.6077 219.056 15.6129L218.947 15.613C209.322 15.6249 200.992 22.7052 198.209 33.4093C197.387 36.6042 197.09 39.4162 197.231 41.7909C197.615 48.26 201.154 51.6678 205.365 51.6626C205.583 51.6624 205.829 51.6621 206.046 51.6345C210.127 51.2746 213.498 48.1858 215.962 44.0881C212.147 40.162 210.145 34.5411 209.851 29.6006C209.498 23.6502 211.607 18.6521 216.01 18.6467C217.158 18.6453 218.492 18.9985 219.959 19.761C224.67 22.1847 227.473 28.8691 227.825 34.7923C228.141 40.1149 226.807 44.3477 224.45 47.4899C228.477 50.3784 233.394 52.1194 238.316 52.1134ZM217.823 40.4279C219.264 37.0686 220.194 33.3822 220.545 30.0788C220.766 28.2769 220.816 26.83 220.75 25.7109C220.619 23.5 220.044 22.5726 219.333 22.5734L219.306 22.5735C217.665 22.5755 215.269 27.3555 215.603 32.9784C215.747 35.4077 216.394 38.0002 217.823 40.4279ZM237.197 44.799C238.838 44.7969 241.282 39.9077 240.945 34.2302C240.802 31.8282 240.13 29.263 238.702 26.8626C237.263 30.2493 236.335 33.9629 235.986 37.2936C235.766 39.1228 235.716 40.5697 235.782 41.6888C235.912 43.8724 236.486 44.7998 237.197 44.799Z" fill="#00BFFF"/>
</g>
<path d="M222.654 49.4848L227.665 41.1446L220.994 36.9263L215.557 42.0416L222.654 49.4848ZM233.85 17.9149L228.995 26.3513L235.726 30.4505L241.065 25.2457L233.85 17.9149ZM250.22 55.4836L247.261 45.7916L247.24 45.7969L247.219 45.8022L250.22 55.4836ZM247.264 49.9185L252.363 58.7911L252.37 58.7873L252.377 58.7834L247.264 49.9185ZM259.381 34.3166L249.675 31.2888L249.673 31.2984L249.67 31.3079L259.381 34.3166ZM240.56 23.1478L231.819 17.7757L228.029 24.293L233.638 29.9514L240.56 23.1478ZM236.6 47.6387L240.617 38.7411L240.59 38.7281L240.564 38.7152L236.6 47.6387ZM232.056 19.9372L240.307 26.0653L246.221 17.8627L237.402 11.8178L232.056 19.9372ZM198.209 33.4093L188.502 30.3884L188.499 30.3998L188.496 30.4112L198.209 33.4093ZM206.046 51.6345L204.592 41.6904L204.404 41.707L204.218 41.7307L206.046 51.6345ZM215.962 44.0881L224.635 49.5766L228.532 43.095L222.96 37.3616L215.962 44.0881ZM219.959 19.761L215.74 28.5561L215.76 28.5662L215.779 28.5763L219.959 19.761ZM224.45 47.4899L216.302 41.2224L210.265 49.272L218.915 55.4764L224.45 47.4899ZM217.823 40.4279L209.257 45.1004L219.486 62.4727L227.071 44.7934L217.823 40.4279ZM220.545 30.0788L210.6 28.3052L210.59 28.384L210.582 28.4631L220.545 30.0788ZM238.702 26.8626L247.244 22.1489L236.955 4.85192L229.443 22.5257L238.702 26.8626ZM235.986 37.2936L245.934 39.0414L245.942 38.9689L245.95 38.8964L235.986 37.2936ZM243.732 46.1636C238.858 46.1696 232.737 44.3521 227.665 41.1446L217.644 57.825C225.755 62.9543 235.738 66.1397 244.918 66.1284L243.732 46.1636ZM215.557 42.0416C214.138 43.3773 212.015 44.21 209.543 44.213L210.729 64.1778C217.555 64.1694 224.489 61.879 229.751 56.928L215.557 42.0416ZM209.543 44.213C207.051 44.2161 204.795 43.3577 203.236 42.0063C201.846 40.8023 200.403 38.6978 200.173 34.8264L180.173 34.8511C180.711 43.9178 184.546 51.4974 190.595 56.7401C196.474 61.8354 203.816 64.1864 210.729 64.1778L209.543 44.213ZM200.173 34.8264C199.862 29.5917 201.486 26.8746 203.345 25.2691C205.48 23.4245 209.031 22.1416 213.756 22.1357L212.57 2.17094C204.553 2.18083 196.138 4.32482 189.729 9.86115C183.043 15.6365 179.543 24.2543 180.173 34.8511L200.173 34.8264ZM213.756 22.1357L213.865 22.1356L212.679 2.17081L212.57 2.17094L213.756 22.1357ZM213.865 22.1356C219.042 22.1292 224.592 23.6697 228.995 26.3513L238.706 9.47853C230.852 4.69574 221.503 2.15992 212.679 2.17081L213.865 22.1356ZM241.065 25.2457C242.922 23.435 245.09 22.6977 247.206 22.695L246.02 2.73024C239.002 2.73889 232.068 5.28848 226.636 10.5842L241.065 25.2457ZM247.206 22.695C252.073 22.689 257.003 26.3676 257.389 32.8723L277.389 32.8476C276.303 14.5679 261.168 2.71155 246.02 2.73024L247.206 22.695ZM257.389 32.8723C257.788 39.5863 253.873 44.1401 247.261 45.7916L253.178 65.1756C266.775 61.7794 278.44 50.5359 277.389 32.8476L257.389 32.8723ZM247.219 45.8022C246.361 46.0207 245.221 46.1618 243.732 46.1636L244.918 66.1284C247.585 66.1251 250.415 65.8791 253.22 65.1649L247.219 45.8022ZM238.909 62.0958C243.482 62.0901 248.089 61.0586 252.363 58.7911L242.165 41.046C240.766 41.7882 239.274 42.129 237.723 42.131L238.909 62.0958ZM252.377 58.7834C260.413 54.5021 266.657 46.7417 269.092 37.3253L249.67 31.3079C248.547 35.654 245.619 39.206 242.151 41.0536L252.377 58.7834ZM269.087 37.3444C270.141 33.3008 270.624 29.4426 270.408 25.8135L250.408 25.8381C250.471 26.9038 250.358 28.6697 249.675 31.2888L269.087 37.3444ZM270.408 25.8135C270.101 20.6453 268.335 15.5493 264.476 11.6642C260.581 7.74282 255.638 6.15787 251.118 6.16345L252.304 26.1283C252.27 26.1283 252.052 26.1223 251.712 25.99C251.351 25.85 250.969 25.6111 250.647 25.2878C250.329 24.9674 250.225 24.7201 250.227 24.7249C250.237 24.7495 250.363 25.0795 250.408 25.8381L270.408 25.8135ZM251.118 6.16345C243.218 6.17319 235.862 10.8219 231.819 17.7757L249.302 28.5199C249.826 27.6189 250.511 26.9716 251.168 26.5718C251.492 26.3744 251.778 26.2568 251.995 26.1923C252.215 26.1271 252.322 26.1282 252.304 26.1283L251.118 6.16345ZM233.638 29.9514C235.22 31.5474 236.483 34.4792 236.663 37.5112L256.663 37.4865C256.256 30.6374 253.522 22.4368 247.483 16.3442L233.638 29.9514ZM236.663 37.5112C236.713 38.3474 236.667 39.0446 236.579 39.5683C236.488 40.108 236.376 40.3257 236.387 40.3047C236.399 40.282 236.627 39.8524 237.272 39.4075C237.989 38.9124 238.89 38.6354 239.757 38.6343L240.943 58.5992C247.677 58.5909 252.072 54.5349 254.277 50.3105C256.36 46.3207 256.911 41.664 256.663 37.4865L236.663 37.5112ZM239.757 38.6343C240.473 38.6335 240.803 38.8329 240.617 38.7411L232.584 56.5362C235.159 57.8059 237.985 58.6028 240.943 58.5992L239.757 38.6343ZM240.564 38.7152C241.048 38.9504 240.614 38.9454 239.915 37.5433C239.263 36.234 238.791 34.4752 238.689 32.7589L218.689 32.7835C218.939 36.9904 220.044 41.5081 222.07 45.5731C224.049 49.5454 227.394 54.0125 232.637 56.5622L240.564 38.7152ZM238.689 32.7589C238.499 29.5473 239.311 27.4468 240.307 26.0653L223.805 13.8091C220.153 18.8755 218.248 25.3498 218.689 32.7835L238.689 32.7589ZM237.402 11.8178C231.433 7.72608 224.919 5.62251 218.463 5.63047L219.649 25.5953C221.616 25.5929 224.014 26.2081 226.711 28.0565L237.402 11.8178ZM218.463 5.63047L218.354 5.63061L219.54 25.5954L219.649 25.5953L218.463 5.63047ZM218.354 5.63061C203.54 5.64888 192.138 16.3986 188.502 30.3884L207.917 36.4303C209.845 29.0119 215.104 25.6009 219.54 25.5954L218.354 5.63061ZM188.496 30.4112C187.488 34.3307 187.015 38.1752 187.231 41.8033L207.231 41.7786C207.164 40.6572 207.287 38.8777 207.923 36.4075L188.496 30.4112ZM187.231 41.8033C187.52 46.6735 189.07 51.5849 192.495 55.4811C196.058 59.5347 200.951 61.6512 205.957 61.645L204.772 41.6802C205.088 41.6798 205.546 41.7478 206.058 41.9787C206.576 42.2125 206.973 42.5351 207.23 42.8282C207.737 43.4045 207.326 43.3774 207.231 41.7786L187.231 41.8033ZM205.957 61.645C206.038 61.6449 206.932 61.658 207.875 61.5383L204.218 41.7307C204.387 41.7092 204.524 41.6978 204.617 41.6914C204.712 41.6849 204.782 41.6822 204.819 41.6811C204.857 41.6799 204.876 41.6799 204.865 41.68C204.851 41.6801 204.832 41.6802 204.772 41.6802L205.957 61.645ZM207.501 61.5786C216.1 60.8201 221.599 54.6265 224.635 49.5766L207.29 38.5997C206.457 39.9838 205.666 40.8601 205.067 41.3391C204.498 41.7949 204.34 41.7127 204.592 41.6904L207.501 61.5786ZM222.96 37.3616C221.303 35.6558 220.031 32.6194 219.851 29.5883L199.851 29.613C200.258 36.4628 202.991 44.6681 208.964 50.8147L222.96 37.3616ZM219.851 29.5883C219.802 28.7567 219.847 28.0702 219.931 27.5602C220.019 27.034 220.125 26.8339 220.105 26.8729C220.084 26.9134 219.842 27.3643 219.175 27.8266C218.434 28.3401 217.504 28.628 216.603 28.6291L215.417 8.66427C208.718 8.67253 204.362 12.723 202.189 16.9157C200.139 20.8719 199.606 25.4818 199.851 29.613L219.851 29.5883ZM216.603 28.6291C216.146 28.6296 215.835 28.5601 215.701 28.5229C215.568 28.4859 215.58 28.473 215.74 28.5561L224.178 10.9659C221.603 9.6279 218.607 8.66033 215.417 8.66427L216.603 28.6291ZM215.779 28.5763C215.37 28.3657 215.856 28.4571 216.578 29.926C217.25 31.2949 217.723 33.0899 217.825 34.8046L237.825 34.78C237.575 30.5716 236.47 26.0627 234.476 22.0027C232.53 18.0426 229.259 13.58 224.139 10.9457L215.779 28.5763ZM217.825 34.8046C218.018 38.0569 217.204 40.0187 216.302 41.2224L232.599 53.7573C236.409 48.6768 238.264 42.173 237.825 34.78L217.825 34.8046ZM218.915 55.4764C224.605 59.5576 231.649 62.1047 238.909 62.0958L237.723 42.131C235.138 42.1341 232.35 41.1993 229.985 39.5033L218.915 55.4764ZM227.071 44.7934C228.885 40.5649 230.055 35.9524 230.507 31.6945L210.582 28.4631C210.332 30.8121 209.644 33.5722 208.575 36.0625L227.071 44.7934ZM230.489 31.8524C230.76 29.6443 230.862 27.5777 230.75 25.6986L210.75 25.7232C210.771 26.0824 210.771 26.9094 210.6 28.3052L230.489 31.8524ZM230.75 25.6986C230.653 24.0667 230.358 21.6981 229.213 19.3617C227.969 16.8228 224.615 12.5838 218.74 12.591L219.926 32.5558C217.738 32.5585 215.631 31.7852 213.959 30.4832C212.441 29.3021 211.662 27.9928 211.305 27.2638C210.658 25.9436 210.716 25.1442 210.75 25.7232L230.75 25.6986ZM218.74 12.591L218.713 12.5911L219.899 32.5559L219.926 32.5558L218.74 12.591ZM218.713 12.5911C213.822 12.5971 210.99 15.7498 210.152 16.7485C208.897 18.2436 208.007 19.9487 207.383 21.5044C206.113 24.6651 205.347 28.6867 205.603 32.9908L225.603 32.9661C225.525 31.6473 225.79 30.4674 226.045 29.8318C226.183 29.4894 226.179 29.6476 225.824 30.0702C225.645 30.2837 225.195 30.7823 224.411 31.2835C223.658 31.7651 222.112 32.5531 219.899 32.5559L218.713 12.5911ZM205.603 32.9908C205.826 36.7431 206.838 40.9921 209.257 45.1004L226.389 35.7555C225.949 35.0083 225.669 34.0724 225.603 32.9661L205.603 32.9908ZM237.79 54.7814C242.746 54.7753 245.589 51.5327 246.389 50.5693C247.633 49.0718 248.521 47.3632 249.147 45.7986C250.42 42.6222 251.203 38.5635 250.945 34.2178L230.945 34.2425C231.024 35.5743 230.754 36.799 230.478 37.4871C230.331 37.8548 230.321 37.7238 230.656 37.321C230.824 37.1187 231.264 36.6232 232.038 36.1199C232.776 35.6408 234.341 34.8194 236.604 34.8166L237.79 54.7814ZM250.945 34.2178C250.718 30.3999 249.642 26.1813 247.244 22.1489L230.161 31.5762C230.618 32.3448 230.886 33.2564 230.945 34.2425L250.945 34.2178ZM229.443 22.5257C227.636 26.7771 226.47 31.4115 226.022 35.6909L245.95 38.8964C246.2 36.5143 246.89 33.7215 247.962 31.1994L229.443 22.5257ZM226.038 35.5459C225.772 37.7599 225.67 39.8215 225.782 41.7011L245.782 41.6765C245.761 41.3179 245.76 40.4857 245.934 39.0414L226.038 35.5459ZM225.782 41.7011C225.879 43.3315 226.177 45.6992 227.329 48.0365C228.578 50.5711 231.933 54.7886 237.79 54.7814L236.604 34.8166C238.79 34.8139 240.891 35.5857 242.558 36.8788C244.072 38.0535 244.854 39.3573 245.215 40.0896C245.87 41.4176 245.815 42.2297 245.782 41.6765L225.782 41.7011Z" fill="#00008B" mask="url(#path-3-outside-2_1794_1339)"/>
<defs>
<filter id="filter0_d_1794_1339" x="0" y="0.209351" width="316.574" height="82.3795" filterUnits="userSpaceOnUse" color-interpolation-filters="sRGB">
<feFlood flood-opacity="0" result="BackgroundImageFix"/>
<feColorMatrix in="SourceAlpha" type="matrix" values="0 0 0 0 0 0 0 0 0 0 0 0 0 0 0 0 0 0 127 0" result="hardAlpha"/>
<feOffset dx="2" dy="8"/>
<feGaussianBlur stdDeviation="2"/>
<feComposite in2="hardAlpha" operator="out"/>
<feColorMatrix type="matrix" values="0 0 0 0 0 0 0 0 0 0 0 0 0 0 0 0 0 0 0.25 0"/>
<feBlend mode="normal" in2="BackgroundImageFix" result="effect1_dropShadow_1794_1339"/>
<feBlend mode="normal" in="SourceGraphic" in2="effect1_dropShadow_1794_1339" result="shape"/>
</filter>
<filter id="filter1_i_1794_1339" x="188.826" y="12.088" width="79.9434" height="45.1232" filterUnits="userSpaceOnUse" color-interpolation-filters="sRGB">
<feFlood flood-opacity="0" result="BackgroundImageFix"/>
<feBlend mode="normal" in="SourceGraphic" in2="BackgroundImageFix" result="shape"/>
<feColorMatrix in="SourceAlpha" type="matrix" values="0 0 0 0 0 0 0 0 0 0 0 0 0 0 0 0 0 0 127 0" result="hardAlpha"/>
<feOffset dy="1"/>
<feGaussianBlur stdDeviation="2"/>
<feComposite in2="hardAlpha" operator="arithmetic" k2="-1" k3="1"/>
<feColorMatrix type="matrix" values="0 0 0 0 0 0 0 0 0 0 0 0 0 0 0 0 0 0 0.25 0"/>
<feBlend mode="normal" in2="shape" result="effect1_innerShadow_1794_1339"/>
</filter>
</defs>
</svg>
