<svg width="523" height="92" viewBox="0 0 523 92" fill="none" xmlns="http://www.w3.org/2000/svg">
<path d="M0 46C0 20.5949 20.5949 0 46 0H448.483C462.356 0 472.098 13.6677 467.572 26.7822V26.7822C464.892 34.5462 467.182 43.1595 473.363 48.568L475.217 50.1902C491.795 64.6957 481.536 92 459.508 92H46C20.5949 92 0 71.4051 0 46V46Z" fill="#00BFFF"/>
<path d="M31.103 25.719V31.227H37.583V33.738H31.103V39.489H38.393V42H28.025V23.208H38.393V25.719H31.103ZM47.5842 42.243C46.4142 42.243 45.3612 42.036 44.4252 41.622C43.5072 41.19 42.7782 40.614 42.2382 39.894C41.6982 39.156 41.4102 38.337 41.3742 37.437H44.5602C44.6142 38.067 44.9112 38.598 45.4512 39.03C46.0092 39.444 46.7022 39.651 47.5302 39.651C48.3942 39.651 49.0602 39.489 49.5282 39.165C50.0142 38.823 50.2572 38.391 50.2572 37.869C50.2572 37.311 49.9872 36.897 49.4472 36.627C48.9252 36.357 48.0882 36.06 46.9362 35.736C45.8202 35.43 44.9112 35.133 44.2092 34.845C43.5072 34.557 42.8952 34.116 42.3732 33.522C41.8692 32.928 41.6172 32.145 41.6172 31.173C41.6172 30.381 41.8512 29.661 42.3192 29.013C42.7872 28.347 43.4532 27.825 44.3172 27.447C45.1992 27.069 46.2072 26.88 47.3412 26.88C49.0332 26.88 50.3922 27.312 51.4182 28.176C52.4622 29.022 53.0202 30.183 53.0922 31.659H50.0142C49.9602 30.993 49.6902 30.462 49.2042 30.066C48.7182 29.67 48.0612 29.472 47.2332 29.472C46.4232 29.472 45.8022 29.625 45.3702 29.931C44.9382 30.237 44.7222 30.642 44.7222 31.146C44.7222 31.542 44.8662 31.875 45.1542 32.145C45.4422 32.415 45.7932 32.631 46.2072 32.793C46.6212 32.937 47.2332 33.126 48.0432 33.36C49.1232 33.648 50.0052 33.945 50.6892 34.251C51.3912 34.539 51.9942 34.971 52.4982 35.547C53.0022 36.123 53.2632 36.888 53.2812 37.842C53.2812 38.688 53.0472 39.444 52.5792 40.11C52.1112 40.776 51.4452 41.298 50.5812 41.676C49.7352 42.054 48.7362 42.243 47.5842 42.243ZM60.198 29.634V37.869C60.198 38.427 60.324 38.832 60.576 39.084C60.846 39.318 61.296 39.435 61.926 39.435H63.816V42H61.386C60 42 58.938 41.676 58.2 41.028C57.462 40.38 57.093 39.327 57.093 37.869V29.634H55.338V27.123H57.093V23.424H60.198V27.123H63.816V29.634H60.198ZM65.6269 34.494C65.6269 33 65.9329 31.677 66.5449 30.525C67.1749 29.373 68.0209 28.482 69.0829 27.852C70.1629 27.204 71.3509 26.88 72.6469 26.88C73.8169 26.88 74.8339 27.114 75.6979 27.582C76.5799 28.032 77.2819 28.599 77.8039 29.283V27.123H80.9089V42H77.8039V39.786C77.2819 40.488 76.5709 41.073 75.6709 41.541C74.7709 42.009 73.7449 42.243 72.5929 42.243C71.3149 42.243 70.1449 41.919 69.0829 41.271C68.0209 40.605 67.1749 39.687 66.5449 38.517C65.9329 37.329 65.6269 35.988 65.6269 34.494ZM77.8039 34.548C77.8039 33.522 77.5879 32.631 77.1559 31.875C76.7419 31.119 76.1929 30.543 75.5089 30.147C74.8249 29.751 74.0869 29.553 73.2949 29.553C72.5029 29.553 71.7649 29.751 71.0809 30.147C70.3969 30.525 69.8389 31.092 69.4069 31.848C68.9929 32.586 68.7859 33.468 68.7859 34.494C68.7859 35.52 68.9929 36.42 69.4069 37.194C69.8389 37.968 70.3969 38.562 71.0809 38.976C71.7829 39.372 72.5209 39.57 73.2949 39.57C74.0869 39.57 74.8249 39.372 75.5089 38.976C76.1929 38.58 76.7419 38.004 77.1559 37.248C77.5879 36.474 77.8039 35.574 77.8039 34.548ZM102.961 26.88C104.131 26.88 105.175 27.123 106.093 27.609C107.029 28.095 107.758 28.815 108.28 29.769C108.82 30.723 109.09 31.875 109.09 33.225V42H106.039V33.684C106.039 32.352 105.706 31.335 105.04 30.633C104.374 29.913 103.465 29.553 102.313 29.553C101.161 29.553 100.243 29.913 99.5588 30.633C98.8928 31.335 98.5598 32.352 98.5598 33.684V42H95.5088V33.684C95.5088 32.352 95.1758 31.335 94.5098 30.633C93.8438 29.913 92.9348 29.553 91.7828 29.553C90.6308 29.553 89.7128 29.913 89.0288 30.633C88.3628 31.335 88.0298 32.352 88.0298 33.684V42H84.9518V27.123H88.0298V28.824C88.5338 28.212 89.1728 27.735 89.9468 27.393C90.7208 27.051 91.5488 26.88 92.4308 26.88C93.6188 26.88 94.6808 27.132 95.6168 27.636C96.5528 28.14 97.2728 28.869 97.7768 29.823C98.2268 28.923 98.9288 28.212 99.8828 27.69C100.837 27.15 101.863 26.88 102.961 26.88ZM119.459 42.243C118.055 42.243 116.786 41.928 115.652 41.298C114.518 40.65 113.627 39.75 112.979 38.598C112.331 37.428 112.007 36.078 112.007 34.548C112.007 33.036 112.34 31.695 113.006 30.525C113.672 29.355 114.581 28.455 115.733 27.825C116.885 27.195 118.172 26.88 119.594 26.88C121.016 26.88 122.303 27.195 123.455 27.825C124.607 28.455 125.516 29.355 126.182 30.525C126.848 31.695 127.181 33.036 127.181 34.548C127.181 36.06 126.839 37.401 126.155 38.571C125.471 39.741 124.535 40.65 123.347 41.298C122.177 41.928 120.881 42.243 119.459 42.243ZM119.459 39.57C120.251 39.57 120.989 39.381 121.673 39.003C122.375 38.625 122.942 38.058 123.374 37.302C123.806 36.546 124.022 35.628 124.022 34.548C124.022 33.468 123.815 32.559 123.401 31.821C122.987 31.065 122.438 30.498 121.754 30.12C121.07 29.742 120.332 29.553 119.54 29.553C118.748 29.553 118.01 29.742 117.326 30.12C116.66 30.498 116.129 31.065 115.733 31.821C115.337 32.559 115.139 33.468 115.139 34.548C115.139 36.15 115.544 37.392 116.354 38.274C117.182 39.138 118.217 39.57 119.459 39.57ZM135.624 42.243C134.454 42.243 133.401 42.036 132.465 41.622C131.547 41.19 130.818 40.614 130.278 39.894C129.738 39.156 129.45 38.337 129.414 37.437H132.6C132.654 38.067 132.951 38.598 133.491 39.03C134.049 39.444 134.742 39.651 135.57 39.651C136.434 39.651 137.1 39.489 137.568 39.165C138.054 38.823 138.297 38.391 138.297 37.869C138.297 37.311 138.027 36.897 137.487 36.627C136.965 36.357 136.128 36.06 134.976 35.736C133.86 35.43 132.951 35.133 132.249 34.845C131.547 34.557 130.935 34.116 130.413 33.522C129.909 32.928 129.657 32.145 129.657 31.173C129.657 30.381 129.891 29.661 130.359 29.013C130.827 28.347 131.493 27.825 132.357 27.447C133.239 27.069 134.247 26.88 135.381 26.88C137.073 26.88 138.432 27.312 139.458 28.176C140.502 29.022 141.06 30.183 141.132 31.659H138.054C138 30.993 137.73 30.462 137.244 30.066C136.758 29.67 136.101 29.472 135.273 29.472C134.463 29.472 133.842 29.625 133.41 29.931C132.978 30.237 132.762 30.642 132.762 31.146C132.762 31.542 132.906 31.875 133.194 32.145C133.482 32.415 133.833 32.631 134.247 32.793C134.661 32.937 135.273 33.126 136.083 33.36C137.163 33.648 138.045 33.945 138.729 34.251C139.431 34.539 140.034 34.971 140.538 35.547C141.042 36.123 141.303 36.888 141.321 37.842C141.321 38.688 141.087 39.444 140.619 40.11C140.151 40.776 139.485 41.298 138.621 41.676C137.775 42.054 136.776 42.243 135.624 42.243ZM150.635 34.494C150.635 33 150.941 31.677 151.553 30.525C152.183 29.373 153.029 28.482 154.091 27.852C155.171 27.204 156.359 26.88 157.655 26.88C158.825 26.88 159.842 27.114 160.706 27.582C161.588 28.032 162.29 28.599 162.812 29.283V27.123H165.917V42H162.812V39.786C162.29 40.488 161.579 41.073 160.679 41.541C159.779 42.009 158.753 42.243 157.601 42.243C156.323 42.243 155.153 41.919 154.091 41.271C153.029 40.605 152.183 39.687 151.553 38.517C150.941 37.329 150.635 35.988 150.635 34.494ZM162.812 34.548C162.812 33.522 162.596 32.631 162.164 31.875C161.75 31.119 161.201 30.543 160.517 30.147C159.833 29.751 159.095 29.553 158.303 29.553C157.511 29.553 156.773 29.751 156.089 30.147C155.405 30.525 154.847 31.092 154.415 31.848C154.001 32.586 153.794 33.468 153.794 34.494C153.794 35.52 154.001 36.42 154.415 37.194C154.847 37.968 155.405 38.562 156.089 38.976C156.791 39.372 157.529 39.57 158.303 39.57C159.095 39.57 159.833 39.372 160.517 38.976C161.201 38.58 161.75 38.004 162.164 37.248C162.596 36.474 162.812 35.574 162.812 34.548ZM168.934 34.494C168.934 33 169.24 31.677 169.852 30.525C170.482 29.373 171.328 28.482 172.39 27.852C173.47 27.204 174.667 26.88 175.981 26.88C177.133 26.88 178.15 27.114 179.032 27.582C179.932 28.05 180.625 28.617 181.111 29.283V27.123H184.216V49.074H181.111V39.84C180.625 40.506 179.923 41.073 179.005 41.541C178.087 42.009 177.043 42.243 175.873 42.243C174.595 42.243 173.425 41.919 172.363 41.271C171.319 40.605 170.482 39.687 169.852 38.517C169.24 37.329 168.934 35.988 168.934 34.494ZM181.111 34.548C181.111 33.522 180.895 32.631 180.463 31.875C180.049 31.119 179.5 30.543 178.816 30.147C178.132 29.751 177.394 29.553 176.602 29.553C175.81 29.553 175.072 29.751 174.388 30.147C173.704 30.525 173.146 31.092 172.714 31.848C172.3 32.586 172.093 33.468 172.093 34.494C172.093 35.52 172.3 36.42 172.714 37.194C173.146 37.968 173.704 38.562 174.388 38.976C175.09 39.372 175.828 39.57 176.602 39.57C177.394 39.57 178.132 39.372 178.816 38.976C179.5 38.58 180.049 38.004 180.463 37.248C180.895 36.474 181.111 35.574 181.111 34.548ZM201.731 27.123V42H198.653V40.245C198.167 40.857 197.528 41.343 196.736 41.703C195.962 42.045 195.134 42.216 194.252 42.216C193.082 42.216 192.029 41.973 191.093 41.487C190.175 41.001 189.446 40.281 188.906 39.327C188.384 38.373 188.123 37.221 188.123 35.871V27.123H191.174V35.412C191.174 36.744 191.507 37.77 192.173 38.49C192.839 39.192 193.748 39.543 194.9 39.543C196.052 39.543 196.961 39.192 197.627 38.49C198.311 37.77 198.653 36.744 198.653 35.412V27.123H201.731ZM207.359 25.152C206.801 25.152 206.333 24.963 205.955 24.585C205.577 24.207 205.388 23.739 205.388 23.181C205.388 22.623 205.577 22.155 205.955 21.777C206.333 21.399 206.801 21.21 207.359 21.21C207.899 21.21 208.358 21.399 208.736 21.777C209.114 22.155 209.303 22.623 209.303 23.181C209.303 23.739 209.114 24.207 208.736 24.585C208.358 24.963 207.899 25.152 207.359 25.152ZM208.871 27.123V42H205.793V27.123H208.871ZM223.003 29.31C223.525 28.626 224.236 28.05 225.136 27.582C226.036 27.114 227.053 26.88 228.187 26.88C229.483 26.88 230.662 27.204 231.724 27.852C232.804 28.482 233.65 29.373 234.262 30.525C234.874 31.677 235.18 33 235.18 34.494C235.18 35.988 234.874 37.329 234.262 38.517C233.65 39.687 232.804 40.605 231.724 41.271C230.662 41.919 229.483 42.243 228.187 42.243C227.053 42.243 226.045 42.018 225.163 41.568C224.281 41.1 223.561 40.524 223.003 39.84V49.074H219.925V27.123H223.003V29.31ZM232.048 34.494C232.048 33.468 231.832 32.586 231.4 31.848C230.986 31.092 230.428 30.525 229.726 30.147C229.042 29.751 228.304 29.553 227.512 29.553C226.738 29.553 226 29.751 225.298 30.147C224.614 30.543 224.056 31.119 223.624 31.875C223.21 32.631 223.003 33.522 223.003 34.548C223.003 35.574 223.21 36.474 223.624 37.248C224.056 38.004 224.614 38.58 225.298 38.976C226 39.372 226.738 39.57 227.512 39.57C228.304 39.57 229.042 39.372 229.726 38.976C230.428 38.562 230.986 37.968 231.4 37.194C231.832 36.42 232.048 35.52 232.048 34.494ZM237.198 34.494C237.198 33 237.504 31.677 238.116 30.525C238.746 29.373 239.592 28.482 240.654 27.852C241.734 27.204 242.922 26.88 244.218 26.88C245.388 26.88 246.405 27.114 247.269 27.582C248.151 28.032 248.853 28.599 249.375 29.283V27.123H252.48V42H249.375V39.786C248.853 40.488 248.142 41.073 247.242 41.541C246.342 42.009 245.316 42.243 244.164 42.243C242.886 42.243 241.716 41.919 240.654 41.271C239.592 40.605 238.746 39.687 238.116 38.517C237.504 37.329 237.198 35.988 237.198 34.494ZM249.375 34.548C249.375 33.522 249.159 32.631 248.727 31.875C248.313 31.119 247.764 30.543 247.08 30.147C246.396 29.751 245.658 29.553 244.866 29.553C244.074 29.553 243.336 29.751 242.652 30.147C241.968 30.525 241.41 31.092 240.978 31.848C240.564 32.586 240.357 33.468 240.357 34.494C240.357 35.52 240.564 36.42 240.978 37.194C241.41 37.968 241.968 38.562 242.652 38.976C243.354 39.372 244.092 39.57 244.866 39.57C245.658 39.57 246.396 39.372 247.08 38.976C247.764 38.58 248.313 38.004 248.727 37.248C249.159 36.474 249.375 35.574 249.375 34.548ZM259.601 29.283C260.051 28.527 260.645 27.942 261.383 27.528C262.139 27.096 263.03 26.88 264.056 26.88V30.066H263.273C262.067 30.066 261.149 30.372 260.519 30.984C259.907 31.596 259.601 32.658 259.601 34.17V42H256.523V27.123H259.601V29.283ZM265.859 34.494C265.859 33 266.165 31.677 266.777 30.525C267.407 29.373 268.253 28.482 269.315 27.852C270.395 27.204 271.583 26.88 272.879 26.88C274.049 26.88 275.066 27.114 275.93 27.582C276.812 28.032 277.514 28.599 278.036 29.283V27.123H281.141V42H278.036V39.786C277.514 40.488 276.803 41.073 275.903 41.541C275.003 42.009 273.977 42.243 272.825 42.243C271.547 42.243 270.377 41.919 269.315 41.271C268.253 40.605 267.407 39.687 266.777 38.517C266.165 37.329 265.859 35.988 265.859 34.494ZM278.036 34.548C278.036 33.522 277.82 32.631 277.388 31.875C276.974 31.119 276.425 30.543 275.741 30.147C275.057 29.751 274.319 29.553 273.527 29.553C272.735 29.553 271.997 29.751 271.313 30.147C270.629 30.525 270.071 31.092 269.639 31.848C269.225 32.586 269.018 33.468 269.018 34.494C269.018 35.52 269.225 36.42 269.639 37.194C270.071 37.968 270.629 38.562 271.313 38.976C272.015 39.372 272.753 39.57 273.527 39.57C274.319 39.57 275.057 39.372 275.741 38.976C276.425 38.58 276.974 38.004 277.388 37.248C277.82 36.474 278.036 35.574 278.036 34.548ZM298.435 29.634H295.681V42H292.576V29.634H290.821V27.123H292.576V26.07C292.576 24.36 293.026 23.118 293.926 22.344C294.844 21.552 296.275 21.156 298.219 21.156V23.721C297.283 23.721 296.626 23.901 296.248 24.261C295.87 24.603 295.681 25.206 295.681 26.07V27.123H298.435V29.634ZM300.137 34.494C300.137 33 300.443 31.677 301.055 30.525C301.685 29.373 302.531 28.482 303.593 27.852C304.673 27.204 305.861 26.88 307.157 26.88C308.327 26.88 309.344 27.114 310.208 27.582C311.09 28.032 311.792 28.599 312.314 29.283V27.123H315.419V42H312.314V39.786C311.792 40.488 311.081 41.073 310.181 41.541C309.281 42.009 308.255 42.243 307.103 42.243C305.825 42.243 304.655 41.919 303.593 41.271C302.531 40.605 301.685 39.687 301.055 38.517C300.443 37.329 300.137 35.988 300.137 34.494ZM312.314 34.548C312.314 33.522 312.098 32.631 311.666 31.875C311.252 31.119 310.703 30.543 310.019 30.147C309.335 29.751 308.597 29.553 307.805 29.553C307.013 29.553 306.275 29.751 305.591 30.147C304.907 30.525 304.349 31.092 303.917 31.848C303.503 32.586 303.296 33.468 303.296 34.494C303.296 35.52 303.503 36.42 303.917 37.194C304.349 37.968 304.907 38.562 305.591 38.976C306.293 39.372 307.031 39.57 307.805 39.57C308.597 39.57 309.335 39.372 310.019 38.976C310.703 38.58 311.252 38.004 311.666 37.248C312.098 36.474 312.314 35.574 312.314 34.548ZM322.189 39.489H328.939V42H318.625V39.489L325.402 29.634H318.625V27.123H328.939V29.634L322.189 39.489ZM345.806 34.197C345.806 34.755 345.77 35.259 345.698 35.709H334.331C334.421 36.897 334.862 37.851 335.654 38.571C336.446 39.291 337.418 39.651 338.57 39.651C340.226 39.651 341.396 38.958 342.08 37.572H345.401C344.951 38.94 344.132 40.065 342.944 40.947C341.774 41.811 340.316 42.243 338.57 42.243C337.148 42.243 335.87 41.928 334.736 41.298C333.62 40.65 332.738 39.75 332.09 38.598C331.46 37.428 331.145 36.078 331.145 34.548C331.145 33.018 331.451 31.677 332.063 30.525C332.693 29.355 333.566 28.455 334.682 27.825C335.816 27.195 337.112 26.88 338.57 26.88C339.974 26.88 341.225 27.186 342.323 27.798C343.421 28.41 344.276 29.274 344.888 30.39C345.5 31.488 345.806 32.757 345.806 34.197ZM342.593 33.225C342.575 32.091 342.17 31.182 341.378 30.498C340.586 29.814 339.605 29.472 338.435 29.472C337.373 29.472 336.464 29.814 335.708 30.498C334.952 31.164 334.502 32.073 334.358 33.225H342.593ZM351.913 29.283C352.363 28.527 352.957 27.942 353.695 27.528C354.451 27.096 355.342 26.88 356.368 26.88V30.066H355.585C354.379 30.066 353.461 30.372 352.831 30.984C352.219 31.596 351.913 32.658 351.913 34.17V42H348.835V27.123H351.913V29.283ZM371.611 42.243C370.441 42.243 369.388 42.036 368.452 41.622C367.534 41.19 366.805 40.614 366.265 39.894C365.725 39.156 365.437 38.337 365.401 37.437H368.587C368.641 38.067 368.938 38.598 369.478 39.03C370.036 39.444 370.729 39.651 371.557 39.651C372.421 39.651 373.087 39.489 373.555 39.165C374.041 38.823 374.284 38.391 374.284 37.869C374.284 37.311 374.014 36.897 373.474 36.627C372.952 36.357 372.115 36.06 370.963 35.736C369.847 35.43 368.938 35.133 368.236 34.845C367.534 34.557 366.922 34.116 366.4 33.522C365.896 32.928 365.644 32.145 365.644 31.173C365.644 30.381 365.878 29.661 366.346 29.013C366.814 28.347 367.48 27.825 368.344 27.447C369.226 27.069 370.234 26.88 371.368 26.88C373.06 26.88 374.419 27.312 375.445 28.176C376.489 29.022 377.047 30.183 377.119 31.659H374.041C373.987 30.993 373.717 30.462 373.231 30.066C372.745 29.67 372.088 29.472 371.26 29.472C370.45 29.472 369.829 29.625 369.397 29.931C368.965 30.237 368.749 30.642 368.749 31.146C368.749 31.542 368.893 31.875 369.181 32.145C369.469 32.415 369.82 32.631 370.234 32.793C370.648 32.937 371.26 33.126 372.07 33.36C373.15 33.648 374.032 33.945 374.716 34.251C375.418 34.539 376.021 34.971 376.525 35.547C377.029 36.123 377.29 36.888 377.308 37.842C377.308 38.688 377.074 39.444 376.606 40.11C376.138 40.776 375.472 41.298 374.608 41.676C373.762 42.054 372.763 42.243 371.611 42.243ZM394.268 34.197C394.268 34.755 394.232 35.259 394.16 35.709H382.793C382.883 36.897 383.324 37.851 384.116 38.571C384.908 39.291 385.88 39.651 387.032 39.651C388.688 39.651 389.858 38.958 390.542 37.572H393.863C393.413 38.94 392.594 40.065 391.406 40.947C390.236 41.811 388.778 42.243 387.032 42.243C385.61 42.243 384.332 41.928 383.198 41.298C382.082 40.65 381.2 39.75 380.552 38.598C379.922 37.428 379.607 36.078 379.607 34.548C379.607 33.018 379.913 31.677 380.525 30.525C381.155 29.355 382.028 28.455 383.144 27.825C384.278 27.195 385.574 26.88 387.032 26.88C388.436 26.88 389.687 27.186 390.785 27.798C391.883 28.41 392.738 29.274 393.35 30.39C393.962 31.488 394.268 32.757 394.268 34.197ZM391.055 33.225C391.037 32.091 390.632 31.182 389.84 30.498C389.048 29.814 388.067 29.472 386.897 29.472C385.835 29.472 384.926 29.814 384.17 30.498C383.414 31.164 382.964 32.073 382.82 33.225H391.055ZM410.77 27.123V42H407.692V40.245C407.206 40.857 406.567 41.343 405.775 41.703C405.001 42.045 404.173 42.216 403.291 42.216C402.121 42.216 401.068 41.973 400.132 41.487C399.214 41.001 398.485 40.281 397.945 39.327C397.423 38.373 397.162 37.221 397.162 35.871V27.123H400.213V35.412C400.213 36.744 400.546 37.77 401.212 38.49C401.878 39.192 402.787 39.543 403.939 39.543C405.091 39.543 406 39.192 406.666 38.49C407.35 37.77 407.692 36.744 407.692 35.412V27.123H410.77ZM420.232 42.243C419.062 42.243 418.009 42.036 417.073 41.622C416.155 41.19 415.426 40.614 414.886 39.894C414.346 39.156 414.058 38.337 414.022 37.437H417.208C417.262 38.067 417.559 38.598 418.099 39.03C418.657 39.444 419.35 39.651 420.178 39.651C421.042 39.651 421.708 39.489 422.176 39.165C422.662 38.823 422.905 38.391 422.905 37.869C422.905 37.311 422.635 36.897 422.095 36.627C421.573 36.357 420.736 36.06 419.584 35.736C418.468 35.43 417.559 35.133 416.857 34.845C416.155 34.557 415.543 34.116 415.021 33.522C414.517 32.928 414.265 32.145 414.265 31.173C414.265 30.381 414.499 29.661 414.967 29.013C415.435 28.347 416.101 27.825 416.965 27.447C417.847 27.069 418.855 26.88 419.989 26.88C421.681 26.88 423.04 27.312 424.066 28.176C425.11 29.022 425.668 30.183 425.74 31.659H422.662C422.608 30.993 422.338 30.462 421.852 30.066C421.366 29.67 420.709 29.472 419.881 29.472C419.071 29.472 418.45 29.625 418.018 29.931C417.586 30.237 417.37 30.642 417.37 31.146C417.37 31.542 417.514 31.875 417.802 32.145C418.09 32.415 418.441 32.631 418.855 32.793C419.269 32.937 419.881 33.126 420.691 33.36C421.771 33.648 422.653 33.945 423.337 34.251C424.039 34.539 424.642 34.971 425.146 35.547C425.65 36.123 425.911 36.888 425.929 37.842C425.929 38.688 425.695 39.444 425.227 40.11C424.759 40.776 424.093 41.298 423.229 41.676C422.383 42.054 421.384 42.243 420.232 42.243ZM33.425 68.243C32.255 68.243 31.202 68.036 30.266 67.622C29.348 67.19 28.619 66.614 28.079 65.894C27.539 65.156 27.251 64.337 27.215 63.437H30.401C30.455 64.067 30.752 64.598 31.292 65.03C31.85 65.444 32.543 65.651 33.371 65.651C34.235 65.651 34.901 65.489 35.369 65.165C35.855 64.823 36.098 64.391 36.098 63.869C36.098 63.311 35.828 62.897 35.288 62.627C34.766 62.357 33.929 62.06 32.777 61.736C31.661 61.43 30.752 61.133 30.05 60.845C29.348 60.557 28.736 60.116 28.214 59.522C27.71 58.928 27.458 58.145 27.458 57.173C27.458 56.381 27.692 55.661 28.16 55.013C28.628 54.347 29.294 53.825 30.158 53.447C31.04 53.069 32.048 52.88 33.182 52.88C34.874 52.88 36.233 53.312 37.259 54.176C38.303 55.022 38.861 56.183 38.933 57.659H35.855C35.801 56.993 35.531 56.462 35.045 56.066C34.559 55.67 33.902 55.472 33.074 55.472C32.264 55.472 31.643 55.625 31.211 55.931C30.779 56.237 30.563 56.642 30.563 57.146C30.563 57.542 30.707 57.875 30.995 58.145C31.283 58.415 31.634 58.631 32.048 58.793C32.462 58.937 33.074 59.126 33.884 59.36C34.964 59.648 35.846 59.945 36.53 60.251C37.232 60.539 37.835 60.971 38.339 61.547C38.843 62.123 39.104 62.888 39.122 63.842C39.122 64.688 38.888 65.444 38.42 66.11C37.952 66.776 37.286 67.298 36.422 67.676C35.576 68.054 34.577 68.243 33.425 68.243ZM48.9009 68.243C47.4969 68.243 46.2279 67.928 45.0939 67.298C43.9599 66.65 43.0689 65.75 42.4209 64.598C41.7729 63.428 41.4489 62.078 41.4489 60.548C41.4489 59.036 41.7819 57.695 42.4479 56.525C43.1139 55.355 44.0229 54.455 45.1749 53.825C46.3269 53.195 47.6139 52.88 49.0359 52.88C50.4579 52.88 51.7449 53.195 52.8969 53.825C54.0489 54.455 54.9579 55.355 55.6239 56.525C56.2899 57.695 56.6229 59.036 56.6229 60.548C56.6229 62.06 56.2809 63.401 55.5969 64.571C54.9129 65.741 53.9769 66.65 52.7889 67.298C51.6189 67.928 50.3229 68.243 48.9009 68.243ZM48.9009 65.57C49.6929 65.57 50.4309 65.381 51.1149 65.003C51.8169 64.625 52.3839 64.058 52.8159 63.302C53.2479 62.546 53.4639 61.628 53.4639 60.548C53.4639 59.468 53.2569 58.559 52.8429 57.821C52.4289 57.065 51.8799 56.498 51.1959 56.12C50.5119 55.742 49.7739 55.553 48.9819 55.553C48.1899 55.553 47.4519 55.742 46.7679 56.12C46.1019 56.498 45.5709 57.065 45.1749 57.821C44.7789 58.559 44.5809 59.468 44.5809 60.548C44.5809 62.15 44.9859 63.392 45.7959 64.274C46.6239 65.138 47.6589 65.57 48.9009 65.57ZM67.1716 52.88C68.3416 52.88 69.3856 53.123 70.3036 53.609C71.2396 54.095 71.9686 54.815 72.4906 55.769C73.0126 56.723 73.2736 57.875 73.2736 59.225V68H70.2226V59.684C70.2226 58.352 69.8896 57.335 69.2236 56.633C68.5576 55.913 67.6486 55.553 66.4966 55.553C65.3446 55.553 64.4266 55.913 63.7426 56.633C63.0766 57.335 62.7436 58.352 62.7436 59.684V68H59.6656V53.123H62.7436V54.824C63.2476 54.212 63.8866 53.735 64.6606 53.393C65.4526 53.051 66.2896 52.88 67.1716 52.88ZM84.8948 52.88C86.0288 52.88 87.0368 53.123 87.9188 53.609C88.8188 54.095 89.5208 54.815 90.0248 55.769C90.5468 56.723 90.8078 57.875 90.8078 59.225V68H87.7568V59.684C87.7568 58.352 87.4238 57.335 86.7578 56.633C86.0918 55.913 85.1828 55.553 84.0308 55.553C82.8788 55.553 81.9608 55.913 81.2768 56.633C80.6108 57.335 80.2778 58.352 80.2778 59.684V68H77.1998V48.02H80.2778V54.851C80.7998 54.221 81.4568 53.735 82.2488 53.393C83.0588 53.051 83.9408 52.88 84.8948 52.88ZM101.187 68.243C99.783 68.243 98.514 67.928 97.38 67.298C96.246 66.65 95.355 65.75 94.707 64.598C94.059 63.428 93.735 62.078 93.735 60.548C93.735 59.036 94.068 57.695 94.734 56.525C95.4 55.355 96.309 54.455 97.461 53.825C98.613 53.195 99.9 52.88 101.322 52.88C102.744 52.88 104.031 53.195 105.183 53.825C106.335 54.455 107.244 55.355 107.91 56.525C108.576 57.695 108.909 59.036 108.909 60.548C108.909 62.06 108.567 63.401 107.883 64.571C107.199 65.741 106.263 66.65 105.075 67.298C103.905 67.928 102.609 68.243 101.187 68.243ZM101.187 65.57C101.979 65.57 102.717 65.381 103.401 65.003C104.103 64.625 104.67 64.058 105.102 63.302C105.534 62.546 105.75 61.628 105.75 60.548C105.75 59.468 105.543 58.559 105.129 57.821C104.715 57.065 104.166 56.498 103.482 56.12C102.798 55.742 102.06 55.553 101.268 55.553C100.476 55.553 99.738 55.742 99.054 56.12C98.388 56.498 97.857 57.065 97.461 57.821C97.065 58.559 96.867 59.468 96.867 60.548C96.867 62.15 97.272 63.392 98.082 64.274C98.91 65.138 99.945 65.57 101.187 65.57ZM117.352 68.243C116.182 68.243 115.129 68.036 114.193 67.622C113.275 67.19 112.546 66.614 112.006 65.894C111.466 65.156 111.178 64.337 111.142 63.437H114.328C114.382 64.067 114.679 64.598 115.219 65.03C115.777 65.444 116.47 65.651 117.298 65.651C118.162 65.651 118.828 65.489 119.296 65.165C119.782 64.823 120.025 64.391 120.025 63.869C120.025 63.311 119.755 62.897 119.215 62.627C118.693 62.357 117.856 62.06 116.704 61.736C115.588 61.43 114.679 61.133 113.977 60.845C113.275 60.557 112.663 60.116 112.141 59.522C111.637 58.928 111.385 58.145 111.385 57.173C111.385 56.381 111.619 55.661 112.087 55.013C112.555 54.347 113.221 53.825 114.085 53.447C114.967 53.069 115.975 52.88 117.109 52.88C118.801 52.88 120.16 53.312 121.186 54.176C122.23 55.022 122.788 56.183 122.86 57.659H119.782C119.728 56.993 119.458 56.462 118.972 56.066C118.486 55.67 117.829 55.472 117.001 55.472C116.191 55.472 115.57 55.625 115.138 55.931C114.706 56.237 114.49 56.642 114.49 57.146C114.49 57.542 114.634 57.875 114.922 58.145C115.21 58.415 115.561 58.631 115.975 58.793C116.389 58.937 117.001 59.126 117.811 59.36C118.891 59.648 119.773 59.945 120.457 60.251C121.159 60.539 121.762 60.971 122.266 61.547C122.77 62.123 123.031 62.888 123.049 63.842C123.049 64.688 122.815 65.444 122.347 66.11C121.879 66.776 121.213 67.298 120.349 67.676C119.503 68.054 118.504 68.243 117.352 68.243ZM138.788 68.243C137.618 68.243 136.565 68.036 135.629 67.622C134.711 67.19 133.982 66.614 133.442 65.894C132.902 65.156 132.614 64.337 132.578 63.437H135.764C135.818 64.067 136.115 64.598 136.655 65.03C137.213 65.444 137.906 65.651 138.734 65.651C139.598 65.651 140.264 65.489 140.732 65.165C141.218 64.823 141.461 64.391 141.461 63.869C141.461 63.311 141.191 62.897 140.651 62.627C140.129 62.357 139.292 62.06 138.14 61.736C137.024 61.43 136.115 61.133 135.413 60.845C134.711 60.557 134.099 60.116 133.577 59.522C133.073 58.928 132.821 58.145 132.821 57.173C132.821 56.381 133.055 55.661 133.523 55.013C133.991 54.347 134.657 53.825 135.521 53.447C136.403 53.069 137.411 52.88 138.545 52.88C140.237 52.88 141.596 53.312 142.622 54.176C143.666 55.022 144.224 56.183 144.296 57.659H141.218C141.164 56.993 140.894 56.462 140.408 56.066C139.922 55.67 139.265 55.472 138.437 55.472C137.627 55.472 137.006 55.625 136.574 55.931C136.142 56.237 135.926 56.642 135.926 57.146C135.926 57.542 136.07 57.875 136.358 58.145C136.646 58.415 136.997 58.631 137.411 58.793C137.825 58.937 138.437 59.126 139.247 59.36C140.327 59.648 141.209 59.945 141.893 60.251C142.595 60.539 143.198 60.971 143.702 61.547C144.206 62.123 144.467 62.888 144.485 63.842C144.485 64.688 144.251 65.444 143.783 66.11C143.315 66.776 142.649 67.298 141.785 67.676C140.939 68.054 139.94 68.243 138.788 68.243ZM161.446 60.197C161.446 60.755 161.41 61.259 161.338 61.709H149.971C150.061 62.897 150.502 63.851 151.294 64.571C152.086 65.291 153.058 65.651 154.21 65.651C155.866 65.651 157.036 64.958 157.72 63.572H161.041C160.591 64.94 159.772 66.065 158.584 66.947C157.414 67.811 155.956 68.243 154.21 68.243C152.788 68.243 151.51 67.928 150.376 67.298C149.26 66.65 148.378 65.75 147.73 64.598C147.1 63.428 146.785 62.078 146.785 60.548C146.785 59.018 147.091 57.677 147.703 56.525C148.333 55.355 149.206 54.455 150.322 53.825C151.456 53.195 152.752 52.88 154.21 52.88C155.614 52.88 156.865 53.186 157.963 53.798C159.061 54.41 159.916 55.274 160.528 56.39C161.14 57.488 161.446 58.757 161.446 60.197ZM158.233 59.225C158.215 58.091 157.81 57.182 157.018 56.498C156.226 55.814 155.245 55.472 154.075 55.472C153.013 55.472 152.104 55.814 151.348 56.498C150.592 57.164 150.142 58.073 149.998 59.225H158.233ZM175.08 55.634V63.869C175.08 64.427 175.206 64.832 175.458 65.084C175.728 65.318 176.178 65.435 176.808 65.435H178.698V68H176.268C174.882 68 173.82 67.676 173.082 67.028C172.344 66.38 171.975 65.327 171.975 63.869V55.634H170.22V53.123H171.975V49.424H175.08V53.123H178.698V55.634H175.08ZM187.988 68.243C186.584 68.243 185.315 67.928 184.181 67.298C183.047 66.65 182.156 65.75 181.508 64.598C180.86 63.428 180.536 62.078 180.536 60.548C180.536 59.036 180.869 57.695 181.535 56.525C182.201 55.355 183.11 54.455 184.262 53.825C185.414 53.195 186.701 52.88 188.123 52.88C189.545 52.88 190.832 53.195 191.984 53.825C193.136 54.455 194.045 55.355 194.711 56.525C195.377 57.695 195.71 59.036 195.71 60.548C195.71 62.06 195.368 63.401 194.684 64.571C194 65.741 193.064 66.65 191.876 67.298C190.706 67.928 189.41 68.243 187.988 68.243ZM187.988 65.57C188.78 65.57 189.518 65.381 190.202 65.003C190.904 64.625 191.471 64.058 191.903 63.302C192.335 62.546 192.551 61.628 192.551 60.548C192.551 59.468 192.344 58.559 191.93 57.821C191.516 57.065 190.967 56.498 190.283 56.12C189.599 55.742 188.861 55.553 188.069 55.553C187.277 55.553 186.539 55.742 185.855 56.12C185.189 56.498 184.658 57.065 184.262 57.821C183.866 58.559 183.668 59.468 183.668 60.548C183.668 62.15 184.073 63.392 184.883 64.274C185.711 65.138 186.746 65.57 187.988 65.57ZM201.831 55.283C202.281 54.527 202.875 53.942 203.613 53.528C204.369 53.096 205.26 52.88 206.286 52.88V56.066H205.503C204.297 56.066 203.379 56.372 202.749 56.984C202.137 57.596 201.831 58.658 201.831 60.17V68H198.753V53.123H201.831V55.283ZM216.621 52.88C217.791 52.88 218.835 53.123 219.753 53.609C220.689 54.095 221.418 54.815 221.94 55.769C222.462 56.723 222.723 57.875 222.723 59.225V68H219.672V59.684C219.672 58.352 219.339 57.335 218.673 56.633C218.007 55.913 217.098 55.553 215.946 55.553C214.794 55.553 213.876 55.913 213.192 56.633C212.526 57.335 212.193 58.352 212.193 59.684V68H209.115V53.123H212.193V54.824C212.697 54.212 213.336 53.735 214.11 53.393C214.902 53.051 215.739 52.88 216.621 52.88ZM225.623 60.494C225.623 59 225.929 57.677 226.541 56.525C227.171 55.373 228.017 54.482 229.079 53.852C230.159 53.204 231.347 52.88 232.643 52.88C233.813 52.88 234.83 53.114 235.694 53.582C236.576 54.032 237.278 54.599 237.8 55.283V53.123H240.905V68H237.8V65.786C237.278 66.488 236.567 67.073 235.667 67.541C234.767 68.009 233.741 68.243 232.589 68.243C231.311 68.243 230.141 67.919 229.079 67.271C228.017 66.605 227.171 65.687 226.541 64.517C225.929 63.329 225.623 61.988 225.623 60.494ZM237.8 60.548C237.8 59.522 237.584 58.631 237.152 57.875C236.738 57.119 236.189 56.543 235.505 56.147C234.821 55.751 234.083 55.553 233.291 55.553C232.499 55.553 231.761 55.751 231.077 56.147C230.393 56.525 229.835 57.092 229.403 57.848C228.989 58.586 228.782 59.468 228.782 60.494C228.782 61.52 228.989 62.42 229.403 63.194C229.835 63.968 230.393 64.562 231.077 64.976C231.779 65.372 232.517 65.57 233.291 65.57C234.083 65.57 234.821 65.372 235.505 64.976C236.189 64.58 236.738 64.004 237.152 63.248C237.584 62.474 237.8 61.574 237.8 60.548ZM248.026 55.283C248.476 54.527 249.07 53.942 249.808 53.528C250.564 53.096 251.455 52.88 252.481 52.88V56.066H251.698C250.492 56.066 249.574 56.372 248.944 56.984C248.332 57.596 248.026 58.658 248.026 60.17V68H244.948V53.123H248.026V55.283ZM268.945 60.197C268.945 60.755 268.909 61.259 268.837 61.709H257.47C257.56 62.897 258.001 63.851 258.793 64.571C259.585 65.291 260.557 65.651 261.709 65.651C263.365 65.651 264.535 64.958 265.219 63.572H268.54C268.09 64.94 267.271 66.065 266.083 66.947C264.913 67.811 263.455 68.243 261.709 68.243C260.287 68.243 259.009 67.928 257.875 67.298C256.759 66.65 255.877 65.75 255.229 64.598C254.599 63.428 254.284 62.078 254.284 60.548C254.284 59.018 254.59 57.677 255.202 56.525C255.832 55.355 256.705 54.455 257.821 53.825C258.955 53.195 260.251 52.88 261.709 52.88C263.113 52.88 264.364 53.186 265.462 53.798C266.56 54.41 267.415 55.274 268.027 56.39C268.639 57.488 268.945 58.757 268.945 60.197ZM265.732 59.225C265.714 58.091 265.309 57.182 264.517 56.498C263.725 55.814 262.744 55.472 261.574 55.472C260.512 55.472 259.603 55.814 258.847 56.498C258.091 57.164 257.641 58.073 257.497 59.225H265.732ZM289.983 52.88C291.153 52.88 292.197 53.123 293.115 53.609C294.051 54.095 294.78 54.815 295.302 55.769C295.842 56.723 296.112 57.875 296.112 59.225V68H293.061V59.684C293.061 58.352 292.728 57.335 292.062 56.633C291.396 55.913 290.487 55.553 289.335 55.553C288.183 55.553 287.265 55.913 286.581 56.633C285.915 57.335 285.582 58.352 285.582 59.684V68H282.531V59.684C282.531 58.352 282.198 57.335 281.532 56.633C280.866 55.913 279.957 55.553 278.805 55.553C277.653 55.553 276.735 55.913 276.051 56.633C275.385 57.335 275.052 58.352 275.052 59.684V68H271.974V53.123H275.052V54.824C275.556 54.212 276.195 53.735 276.969 53.393C277.743 53.051 278.571 52.88 279.453 52.88C280.641 52.88 281.703 53.132 282.639 53.636C283.575 54.14 284.295 54.869 284.799 55.823C285.249 54.923 285.951 54.212 286.905 53.69C287.859 53.15 288.885 52.88 289.983 52.88ZM310.121 55.283C310.571 54.527 311.165 53.942 311.903 53.528C312.659 53.096 313.55 52.88 314.576 52.88V56.066H313.793C312.587 56.066 311.669 56.372 311.039 56.984C310.427 57.596 310.121 58.658 310.121 60.17V68H307.043V53.123H310.121V55.283ZM331.04 60.197C331.04 60.755 331.004 61.259 330.932 61.709H319.565C319.655 62.897 320.096 63.851 320.888 64.571C321.68 65.291 322.652 65.651 323.804 65.651C325.46 65.651 326.63 64.958 327.314 63.572H330.635C330.185 64.94 329.366 66.065 328.178 66.947C327.008 67.811 325.55 68.243 323.804 68.243C322.382 68.243 321.104 67.928 319.97 67.298C318.854 66.65 317.972 65.75 317.324 64.598C316.694 63.428 316.379 62.078 316.379 60.548C316.379 59.018 316.685 57.677 317.297 56.525C317.927 55.355 318.8 54.455 319.916 53.825C321.05 53.195 322.346 52.88 323.804 52.88C325.208 52.88 326.459 53.186 327.557 53.798C328.655 54.41 329.51 55.274 330.122 56.39C330.734 57.488 331.04 58.757 331.04 60.197ZM327.827 59.225C327.809 58.091 327.404 57.182 326.612 56.498C325.82 55.814 324.839 55.472 323.669 55.472C322.607 55.472 321.698 55.814 320.942 56.498C320.186 57.164 319.736 58.073 319.592 59.225H327.827ZM333.043 60.494C333.043 59 333.349 57.677 333.961 56.525C334.591 55.373 335.437 54.482 336.499 53.852C337.579 53.204 338.767 52.88 340.063 52.88C341.233 52.88 342.25 53.114 343.114 53.582C343.996 54.032 344.698 54.599 345.22 55.283V53.123H348.325V68H345.22V65.786C344.698 66.488 343.987 67.073 343.087 67.541C342.187 68.009 341.161 68.243 340.009 68.243C338.731 68.243 337.561 67.919 336.499 67.271C335.437 66.605 334.591 65.687 333.961 64.517C333.349 63.329 333.043 61.988 333.043 60.494ZM345.22 60.548C345.22 59.522 345.004 58.631 344.572 57.875C344.158 57.119 343.609 56.543 342.925 56.147C342.241 55.751 341.503 55.553 340.711 55.553C339.919 55.553 339.181 55.751 338.497 56.147C337.813 56.525 337.255 57.092 336.823 57.848C336.409 58.586 336.202 59.468 336.202 60.494C336.202 61.52 336.409 62.42 336.823 63.194C337.255 63.968 337.813 64.562 338.497 64.976C339.199 65.372 339.937 65.57 340.711 65.57C341.503 65.57 342.241 65.372 342.925 64.976C343.609 64.58 344.158 64.004 344.572 63.248C345.004 62.474 345.22 61.574 345.22 60.548ZM355.446 48.02V68H352.368V48.02H355.446ZM361.053 51.152C360.495 51.152 360.027 50.963 359.649 50.585C359.271 50.207 359.082 49.739 359.082 49.181C359.082 48.623 359.271 48.155 359.649 47.777C360.027 47.399 360.495 47.21 361.053 47.21C361.593 47.21 362.052 47.399 362.43 47.777C362.808 48.155 362.997 48.623 362.997 49.181C362.997 49.739 362.808 50.207 362.43 50.585C362.052 50.963 361.593 51.152 361.053 51.152ZM362.565 53.123V68H359.487V53.123H362.565ZM365.58 60.494C365.58 59 365.886 57.677 366.498 56.525C367.128 55.373 367.974 54.482 369.036 53.852C370.116 53.204 371.313 52.88 372.627 52.88C373.599 52.88 374.553 53.096 375.489 53.528C376.443 53.942 377.199 54.5 377.757 55.202V48.02H380.862V68H377.757V65.759C377.253 66.479 376.551 67.073 375.651 67.541C374.769 68.009 373.752 68.243 372.6 68.243C371.304 68.243 370.116 67.919 369.036 67.271C367.974 66.605 367.128 65.687 366.498 64.517C365.886 63.329 365.58 61.988 365.58 60.494ZM377.757 60.548C377.757 59.522 377.541 58.631 377.109 57.875C376.695 57.119 376.146 56.543 375.462 56.147C374.778 55.751 374.04 55.553 373.248 55.553C372.456 55.553 371.718 55.751 371.034 56.147C370.35 56.525 369.792 57.092 369.36 57.848C368.946 58.586 368.739 59.468 368.739 60.494C368.739 61.52 368.946 62.42 369.36 63.194C369.792 63.968 370.35 64.562 371.034 64.976C371.736 65.372 372.474 65.57 373.248 65.57C374.04 65.57 374.778 65.372 375.462 64.976C376.146 64.58 376.695 64.004 377.109 63.248C377.541 62.474 377.757 61.574 377.757 60.548ZM383.879 60.494C383.879 59 384.185 57.677 384.797 56.525C385.427 55.373 386.273 54.482 387.335 53.852C388.415 53.204 389.603 52.88 390.899 52.88C392.069 52.88 393.086 53.114 393.95 53.582C394.832 54.032 395.534 54.599 396.056 55.283V53.123H399.161V68H396.056V65.786C395.534 66.488 394.823 67.073 393.923 67.541C393.023 68.009 391.997 68.243 390.845 68.243C389.567 68.243 388.397 67.919 387.335 67.271C386.273 66.605 385.427 65.687 384.797 64.517C384.185 63.329 383.879 61.988 383.879 60.494ZM396.056 60.548C396.056 59.522 395.84 58.631 395.408 57.875C394.994 57.119 394.445 56.543 393.761 56.147C393.077 55.751 392.339 55.553 391.547 55.553C390.755 55.553 390.017 55.751 389.333 56.147C388.649 56.525 388.091 57.092 387.659 57.848C387.245 58.586 387.038 59.468 387.038 60.494C387.038 61.52 387.245 62.42 387.659 63.194C388.091 63.968 388.649 64.562 389.333 64.976C390.035 65.372 390.773 65.57 391.547 65.57C392.339 65.57 393.077 65.372 393.761 64.976C394.445 64.58 394.994 64.004 395.408 63.248C395.84 62.474 396.056 61.574 396.056 60.548ZM402.178 60.494C402.178 59 402.484 57.677 403.096 56.525C403.726 55.373 404.572 54.482 405.634 53.852C406.714 53.204 407.911 52.88 409.225 52.88C410.197 52.88 411.151 53.096 412.087 53.528C413.041 53.942 413.797 54.5 414.355 55.202V48.02H417.46V68H414.355V65.759C413.851 66.479 413.149 67.073 412.249 67.541C411.367 68.009 410.35 68.243 409.198 68.243C407.902 68.243 406.714 67.919 405.634 67.271C404.572 66.605 403.726 65.687 403.096 64.517C402.484 63.329 402.178 61.988 402.178 60.494ZM414.355 60.548C414.355 59.522 414.139 58.631 413.707 57.875C413.293 57.119 412.744 56.543 412.06 56.147C411.376 55.751 410.638 55.553 409.846 55.553C409.054 55.553 408.316 55.751 407.632 56.147C406.948 56.525 406.39 57.092 405.958 57.848C405.544 58.586 405.337 59.468 405.337 60.494C405.337 61.52 405.544 62.42 405.958 63.194C406.39 63.968 406.948 64.562 407.632 64.976C408.334 65.372 409.072 65.57 409.846 65.57C410.638 65.57 411.376 65.372 412.06 64.976C412.744 64.58 413.293 64.004 413.707 63.248C414.139 62.474 414.355 61.574 414.355 60.548ZM435.138 60.197C435.138 60.755 435.102 61.259 435.03 61.709H423.663C423.753 62.897 424.194 63.851 424.986 64.571C425.778 65.291 426.75 65.651 427.902 65.651C429.558 65.651 430.728 64.958 431.412 63.572H434.733C434.283 64.94 433.464 66.065 432.276 66.947C431.106 67.811 429.648 68.243 427.902 68.243C426.48 68.243 425.202 67.928 424.068 67.298C422.952 66.65 422.07 65.75 421.422 64.598C420.792 63.428 420.477 62.078 420.477 60.548C420.477 59.018 420.783 57.677 421.395 56.525C422.025 55.355 422.898 54.455 424.014 53.825C425.148 53.195 426.444 52.88 427.902 52.88C429.306 52.88 430.557 53.186 431.655 53.798C432.753 54.41 433.608 55.274 434.22 56.39C434.832 57.488 435.138 58.757 435.138 60.197ZM431.925 59.225C431.907 58.091 431.502 57.182 430.71 56.498C429.918 55.814 428.937 55.472 427.767 55.472C426.705 55.472 425.796 55.814 425.04 56.498C424.284 57.164 423.834 58.073 423.69 59.225H431.925Z" fill="white"/>
</svg>
