<svg width="210" height="210" viewBox="0 0 210 210" fill="none" xmlns="http://www.w3.org/2000/svg">
<path d="M175.278 136.222C166.351 126.55 155.518 118.831 143.461 113.552C131.404 108.272 118.384 105.547 105.222 105.547C92.0601 105.547 79.0406 108.272 66.9836 113.552C54.9267 118.831 44.0936 126.55 35.1667 136.222C33.7884 137.746 33.0175 139.723 33 141.778V175.111C33.0292 177.302 33.9201 179.393 35.4797 180.932C37.0394 182.471 39.1423 183.333 41.3333 183.333H169.111C171.321 183.333 173.441 182.455 175.004 180.892C176.566 179.33 177.444 177.21 177.444 175V141.667C177.4 139.65 176.631 137.718 175.278 136.222Z" fill="#658955"/>
<path d="M104.889 94.4443C126.367 94.4443 143.778 77.0331 143.778 55.5554C143.778 34.0777 126.367 16.6665 104.889 16.6665C83.4111 16.6665 66 34.0777 66 55.5554C66 77.0331 83.4111 94.4443 104.889 94.4443Z" fill="#658955"/>
</svg>
