<svg width="94" height="54" viewBox="0 0 94 54" fill="none" xmlns="http://www.w3.org/2000/svg">
<path d="M64.2746 53.9996C55.7322 54.0416 46.1273 50.9993 38.4177 45.8991C34.1286 49.7824 28.5106 51.7243 22.8599 51.7521C11.4259 51.8086 -0.0055488 43.9393 2.02069e-06 28.0209C0.00679416 8.54276 14.103 0.0775775 29.5922 0.00116941L29.7252 0.000523739C38.2343 -0.0413879 47.1414 2.43333 54.3194 6.99891C59.0075 2.61001 64.6588 0.567083 70.2097 0.539787C82.3751 0.479821 94.0053 9.99355 94 25.2402C93.9948 40.2519 83.9533 50.0069 71.4877 53.158C69.2272 53.74 66.8007 53.9871 64.2746 53.9996ZM57.2629 49.0638C60.9857 49.0454 64.742 48.1874 68.2992 46.3228C75.5133 42.5259 81.4987 35.5447 84.1607 27.0687C85.4584 22.9652 86.0247 19.5033 86.0257 16.6152C86.0286 8.38736 81.5094 4.71548 76.158 4.74191C71.2387 4.76609 65.587 7.88367 62.095 13.4085C66.4476 18.1221 68.4728 24.9631 68.4706 31.0417C68.4681 38.4299 65.4744 44.7247 59.99 44.7517C58.6273 44.7585 57.1316 44.3964 55.5032 43.5649C49.8868 40.738 46.9646 32.5918 46.9672 25.3042C46.9695 18.7555 48.9324 13.4734 51.9918 9.49544C46.9408 5.85988 41.6232 4.20695 36.5044 4.23209L36.3714 4.23274C24.6714 4.29045 14.0319 13.041 9.87252 26.2259C8.64132 30.1612 8.07505 33.6231 8.07403 36.5448C8.07126 44.504 12.1249 48.6818 17.2437 48.6566C17.5096 48.6553 17.8087 48.6538 18.0747 48.619C23.0606 48.1577 27.383 44.3416 30.6754 39.2879C26.3228 34.4734 24.2977 27.5653 24.2998 21.4868C24.3023 14.1657 27.2295 8.00554 32.5809 7.97921C33.9769 7.97233 35.5723 8.40101 37.3003 9.33285C42.8502 12.2944 45.7723 20.5078 45.7697 27.7952C45.7675 34.344 43.8378 39.5589 40.7452 43.4361C45.4306 46.9728 51.28 49.0933 57.2629 49.0638ZM33.2031 34.7753C35.1988 30.6348 36.5965 26.0942 37.2626 22.0273C37.6624 19.8089 37.8291 18.0282 37.8296 16.6513C37.8305 13.9311 37.1995 12.7924 36.3352 12.7966L36.3019 12.7968C34.3076 12.8066 31.0482 18.6997 31.0458 25.6178C31.0447 28.6067 31.642 31.7941 33.2031 34.7753ZM56.4351 40.0676C58.4294 40.0578 61.7554 34.0301 61.7578 27.0448C61.7589 24.0895 61.1284 20.9358 59.5672 17.9882C57.5715 22.1623 56.1738 26.7365 55.5077 30.837C55.108 33.0889 54.9412 34.8697 54.9406 36.2466C54.9398 38.9332 55.5709 40.0719 56.4351 40.0676Z" fill="white"/>
</svg>
